<svg id="Layer_1" data-name="Layer 1" xmlns="http://www.w3.org/2000/svg" viewBox="0 0 2343.79 2485.7"><defs><style>.cls-1{fill:#fff;}.cls-2{fill:#efefef;}</style></defs><title>angular-icon-white</title><polygon class="cls-1" points="945.74 1312.89 1156.32 1312.89 1156.32 812.56 945.74 1312.89"/><polygon class="cls-1" points="851.45 1527.12 706.79 1888.77 437.63 1893.35 1156.32 294.3 1156.32 0 0 412 176.7 1941.87 1156.32 2485.7 1156.32 1527.12 851.45 1527.12"/><polygon class="cls-1" points="2343.79 404.67 2343.76 404.87 2343.79 404.67 2343.79 404.67"/><polygon class="cls-2" points="2343.79 404.67 2343.79 404.67 2343.79 404.67 2343.79 404.67"/><polygon class="cls-2" points="1156.32 2485.7 2151.52 1935.46 2343.76 404.87 2151.52 1934.54 1156.32 2485.7"/><polygon class="cls-1" points="1159.99 803.85 1159.99 803.85 1156.32 812.56 1156.32 1312.89 1403.52 1312.89 1159.99 803.85"/><polygon class="cls-1" points="1156.32 0 1156.32 294.3 1158.15 290.23 1158.15 290.23 1158.15 290.23 1158.15 290.23 1913.47 1897.92 1656.21 1893.35 1497.82 1527.12 1156.32 1527.12 1156.32 2485.7 2151.52 1934.54 2343.76 404.87 2343.79 404.67 1156.32 0"/><polygon class="cls-1" points="1158.15 290.23 1158.15 290.23 1158.15 290.23 1158.15 290.23"/></svg>