<svg id="Layer_1" data-name="Layer 1" xmlns="http://www.w3.org/2000/svg" viewBox="0 0 2279.43 1647.91"><defs><style>.cls-1{fill:#fff;fill-rule:evenodd;}</style></defs><title>australia-white</title><path class="cls-1" d="M491.39,1594.09c57.15-34.31,64.78-192.45,139.1-192.45,28.58,0,0,148.62,0,192.45Zm1404.32,0c11.45-41.92,64.8-217.22,102.9-253.42,0-28.57-7.62-83.85,1.9-83.85,13.34,0,55.28,55.28,55.28,89.57,7.62,19,34.3,222.93-15.26,222.93s-76.22-19.06-125.76,24.77ZM1602.27,856.68s32.4,312.49,32.4,383c0,221-169.59,341.07-344.89,341.07-179.11,0-348.71-120-348.71-341.07,0-70.51,34.31-383,34.31-383h133.38c0,13.33,30.49,21,41.92,0ZM927.74,1226.34v15.24c0,226.77,179.13,352.51,362,352.51,179.13,0,358.21-125.74,358.21-352.51,0-76.21-34.28-398.23-34.28-398.23h-463c0-21-1.91-28.59-55.27-22.87-22.86,1.89-43.82,13.33-64.78,26.68L962,843.35s-1.89,19-5.7,47.63c-7.63,5.71-11.44,7.62-21,7.62-22.87,0-17.15-106.71-17.15-120s62.88-7.62,87.65-7.62c26.68,0,34.29-26.68,19.05-43.83-19.05-19.05-26.68-17.15-36.21-34.3-11.43-19.06-55.25-28.59-55.25-45.74,0-11.42,30.49-51.45,5.72-74.31-21,0-34.31,45.73-47.64,45.73s-21-41.92-47.64-45.73c-7.62,9.53-9.53,21-9.53,36.21,0,34.3,15.24,34.3,15.24,64.8,0,34.29-21,26.67-21,78.11,0,55.27-59.06,66.69-72.41,108.62-7.63,22.87-81.93,83.84-131.47,112.43-51.45,30.49-162,101-162,263V1418.8c0,217.22-352.52,108.62-352.52,186.74,0,15.23,9.53,15.23,15.24,15.23H1935.74c0,1.92,1.89,5.72,3.8,11.45,19.08,0,32.4-3.83,53.34-11.45h350.61c41.92,0,51.45-55.25,43.83-55.25-5.72,0-7.63,28.57-43.83,28.57H2126.28c-15.26,0-13.35-20.95-13.35-108.6,0-59.08,11.45-120,11.45-162,0-13.35-38.12-59.08-38.12-82,0-26.68,74.32-13.33,95.28-36.2,15.25,15.24,80.05,26.68,87.65,21,17.17,15.24,32.4,15.24,40,9.52,15.26,0,28.6,21,28.6-9.52,0-179.12-209.61-333.45-318.21-333.45-144.82,0-280.12,129.57-280.12-24.77,0-61,43.82-158.16,43.82-211.51s-41.91-62.88-68.59-62.88c-24.78,0-15.26,21-70.51,41.92-43.82,21-22.88,22.86-3.8,22.86,70.51-1.9,62.88,30.5,62.88,47.64,0,91.46-76.22,62.89-76.22,232.47,0,190.54,213.41,289.63,238.19,289.63,17.14,0,36.2-22.87,36.2,3.81,0,24.78,36.19,30.49,36.19,106.72,0,72.4-83.85,196.24-99.1,230.54-43.82,0-97.17-5.7-112.39,24.77h-766c0-34.31-125.77-20.95-186.74-20.95-30.49,0-59.06,3.8-59.06-43.82,0-133.4,34.29-202,34.29-272.5,0-66.69,22.86-80,43.82-101,9.52-11.43,38.11-49.54,47.64-49.54,7.61,0,7.61,1.9,17.15,9.52,7.62,11.44,41.91,41.92,41.91,53.36,0,28.59-20.95,0-20.95,32.4,0,17.15,15.24,26.68,34.3,26.68,5.71,0,11.43,0,15.24-1.91Zm5.72-81.94c-21-34.29-55.25-66.69-55.25-87.65,0-17.15,26.68-55.25,32.4-62.88,1.9-7.62,24.77-24.77,38.1-24.77q-6.21,87.76-15.25,175.3Z" transform="translate(-110.28 -426.04)"/><path class="cls-1" d="M1556.55,911.93s28.58,264.86,28.58,323.93c0,188.65-146.72,293.44-295.34,293.44-152.43,0-299.16-104.79-299.16-293.44,0-59.07,28.59-323.93,28.59-323.93Zm-364,303V923.37h-162s-24.77,207.7-26.68,291.53Zm181,0V923.37h-171.5V1214.9Zm-171.5,11.44v280.1c28.58,7.62,59.08,13.34,87.65,13.34s57.14-5.72,83.85-13.34v-280.1Zm181,276.3c104.8-34.31,190.54-116.25,190.54-276.3H1383.16ZM1573.7,1214.9c-3.83-83.83-28.6-291.53-28.6-291.53H1383.16V1214.9Zm-381.1,11.44H1002.06c0,148.62,85.74,242,190.54,276.3v-276.3Zm26.67-506.86V637.55l-76.22-15.23,59.08-61-36.21-64.78,76.21,7.61L1289.77,426l43.82,78.12,76.22-7.61-36.2,64.78,59.06,61-76.2,15.23v81.93l-66.7-53.34ZM1326,504.17l-36.2-62.87V580.4l-41.92-68.6-68.6-7.63,110.52,76.23-78.13-13.34-53.35,51.46,131.48-38.11-66.69,51.45v74.3l66.69-125.75,62.88,125.75v-74.3l-62.88-51.45,127.67,38.11-53.34-53.36-74.32,15.25,106.7-76.22-61,7.62-45.72,68.6L1326,504.17Zm80,230.57a21.14,21.14,0,0,1,21,21c0,9.52-9.52,21-21,21H1169.73c-11.43,0-21-11.44-21-21a21.14,21.14,0,0,1,21-21ZM1240.23,769c22.88,0,0-26.68-13.33-26.68h-21c-24.77,0-3.81,26.68,9.52,26.68Zm95.28,0c24.77,0,0-26.68-9.52-26.68h-22.88c-24.75,0-3.8,26.68,9.55,26.68Zm74.32-26.68h-11.46c-22.85,0-1.89,26.68,11.46,26.68S1425.08,742.35,1409.83,742.35Z" transform="translate(-110.28 -426.04)"/><path class="cls-1" d="M1417.45,940.53l57.15,24.77,55.27-24.77L1507,1024.36l43.82-9.51-15.25,51.45,15.25,47.63-40-11.44,19,89.56-55.27-21-57.15,21,22.86-89.56-45.72,13.34L1406,1066.3l-11.42-49.55,43.82,7.63-21-83.85Zm83.83,148.62c13.34,0,13.34-15.24,13.34-30.49,0-34.31-26.68,0-41.92-32.4-11.42,26.68-36.19,0-36.19,30.48,0,21,0,32.4,17.14,32.4h47.63ZM1446,1060.56c0,13.34,15.26,3.8,28.58,3.8s32.4,9.54,32.4-3.8c0-21-19.06-13.34-32.4-13.34S1446,1039.6,1446,1060.56Zm-154.34,3.82V1053h-9.53l7.63-7.63-5.72-9.53,9.52,1.91,5.73-11.43,5.72,11.43,9.52-1.91-3.81,9.53,7.61,7.63h-11.41v11.43l-7.63-5.72-7.63,5.72Zm-43.82,55.26V1108.2h-7.63l3.82-7.62-1.91-7.62h7.63l5.72-11.44,7.62,11.44h7.63l-1.91,7.62,3.8,7.62H1265v11.44l-9.52-5.72-7.63,5.72Zm72.4-9.53v-7.63l-7.6-1.9,5.69-7.62-3.8-7.62h9.53l3.8-11.43,7.63,11.43H1345l-3.8,7.62,5.71,7.62-7.6,1.9v7.63l-11.46-3.81-7.62,3.81Zm7.62,41.92v-3.82h-3.8l3.8-5.72-1.9-5.7h5.73l1.89-5.72,1.91,5.72H1345l-3.8,5.7,3.8,5.72h-5.69V1152l-5.74-1.91Zm-66.67,47.63v-19.05l-17.16-1.9,13.34-13.34-7.62-13.34,15.24,3.81,11.42-19,9.52,19,17.16-3.81-9.53,13.34,13.36,13.34-15.26,1.9v19.05l-15.25-9.53-15.22,9.53Zm53.34-203.88c13.32,0,13.32-15.24,13.32-30.49,0-34.31-24.77,0-38.1-32.39-11.43,26.68-40,1.9-40,32.39,0,17.14,0,30.49,21,30.49Zm-24.77-41.92c13.32,0,30.48-5.72,30.48,13.35,0,13.33-17.15,5.7-30.48,5.7s-28.57,7.63-28.57-5.7C1261.21,948.14,1276.43,953.86,1289.78,953.86Zm64.77,472.55c0-17.14-22.85-72.42-22.85-87.64,0-21,9.52,0,15.22,0,0-13.35,0-47.66-19.05-47.66-51.45,0,34.31,123.88,0,123.88-20.95,0-13.32-80-38.1-104.82-26.68-26.68-62.9-26.68-62.9-49.52,0-13.35-7.61-3.83-7.61,1.89,0,28.57,59.08,49.55,59.08,62.88s-9.52,15.25-15.25,22.88c-5.72,11.42-5.72,66.7-22.88,66.7-13.34,0-3.8-9.54-17.15-9.54-7.62,0,19,30.5,21,40h95.29c9.55,0,15.24-7.64,15.24-19.07Z" transform="translate(-110.28 -426.04)"/><path class="cls-1" d="M1221.18,1296.85c0,5.69,36.21,43.82,41.93,43.82,9.52,0,5.72-1.89,5.72-9.52,0-3.82-38.12-40-41.93-40C1221.18,1291.13,1221.18,1291.13,1221.18,1296.85Zm0,28.57c0,7.63,22.87,40,30.49,40q5.73,0,5.72-11.45c0-5.69-26.68-34.28-30.49-34.28C1221.18,1319.73,1221.18,1319.73,1221.18,1325.42Zm7.63,43.82c0,7.63,7.62,28.6,13.33,28.6s5.72-1.92,5.72-9.54c0-5.7-11.43-22.86-17.15-22.86C1226.9,1365.44,1228.81,1365.44,1228.81,1369.24Zm99.07,97.2,7.63-9.55h-80l5.72,9.55Zm-7.62,19L1326,1474h-57.15l3.8,11.45Zm68.59-32.4c0-13.34,38.12-7.62,38.12-64.79,0-28.58-15.25,9.54-15.25-53.35-22.88,0-5.72-36.2-5.72-53.34,0-20.95-11.43-17.15-11.43-28.58,0-17.15,3.8-17.15,9.52-17.15,7.63,0,21,13.33,21,19,0,13.34-7.63,7.62-7.63,38.1,0,19.08,7.63,19.08,13.32,19.08,7.63,0,9.52-5.72,9.52-9.54,0-9.52-3.8-13.32-3.8-19.06,0-13.32,15.25-26.67,30.48-26.67,26.68,0,36.22,26.67,36.22,34.3,0,11.43-5.72,15.25-5.72,22.88,0,9.52,5.72,13.32,13.35,13.32,13.32,0,19-15.23,19-24.77,0-11.43-11.45-26.68-11.45-41.9,0-19.06,13.35-26.69,24.77-26.69,9.52,0,28.6,0,28.6,13.34,0,9.52-1.92,13.34-11.45,13.34-3.8,0-1.9-19.06-17.15-19.06-19,0-13.32,15.24-13.32,21,0,20.94,13.32,26.68,13.32,47.62,0,15.26-13.32,15.26-13.32,28.6,0,15.23,13.32,0,13.32,15.23,0,11.45-3.8,13.34-3.8,21-1.89,5.72-7.62,15.25-9.52,15.25-5.72,0,1.9-13.34,1.9-21,0-9.52-7.63-7.63-13.35-7.63-7.6,0-28.57,28.6-36.2,28.6s11.43-13.34,11.43-21c0-17.15-34.28,3.83-34.28,13.35,0,13.32-19.08,32.39-22.88,40-9.52,7.63-19,34.31-32.4,34.31C1394.57,1456.89,1388.85,1464.52,1388.85,1453.09Zm-259.13-133.36c7.62,0,9.52-28.6,9.52-41.92,0-17.15,26.68-17.15,41.92-38.12,3.81,3.8,0,21-17.15,32.4,21-9.52,28.59-9.52,0,20.94,9.52-1.89,36.21-17.14,13.33,13.35,13.34-3.83,13.34,0,13.34,13.35s-17.15,49.51-45.74,49.51c-9.53,0-15.23,0-15.23,7.63,0,13.35,13.33,5.72,13.33,13.35,0,5.69-15.24,0-15.24,11.42,0,9.52,24.77,24.77,24.77,41.92,0,7.63-22.86,0-28.58,0-7.63,0-5.72,3.8-9.54,3.8-7.61,0-28.58-11.43-28.58-20.95,0-3.82,9.52-7.62,9.52-22.87,0-17.15-21-5.7-21-13.32,0-9.52,19-7.63,19-17.15,0-11.45-7.61-7.63-7.61-13.35-3.82,5.72-3.82,9.52-13.34,9.52-15.23,0-36.21-9.52-36.21-43.82,0-26.68,9.52-13.32,9.52-22.88s-9.52-5.69-9.52-13.32,11.43,0,11.43-5.72c0-7.63-9.52-7.63-9.52-19,0-7.63,9.52,5.72,15.24,5.72,0-15.25-15.24-17.15-15.24-30.49,13.33,0,41.92,24.77,41.92,43.81,0,9.52-5.72,1.92-5.72,9.52,0,5.72,11.44,21,19,21s7.63-3.83,7.63-7.63-13.35-13.34-19.06-13.34c5.71-7.6,19.06-9.52,24.78-9.52,24.79,0,3.84,36.24,22.89,36.24Zm99.09,243.89-38.11-26.68,43.83,1.9c-7.63,5.73-11.44,13.33-5.72,24.78Zm-177.21-85.75-24.77-40,40,21c-9.53,0-15.24,7.63-15.24,19.06ZM962,1304.47l7.63-43.82,15.24,41.89c-7.62-5.69-17.15-3.79-22.87,1.93Zm5.72-215.32,13.33-43.83,9.54,43.83C983,1081.52,975.38,1085.34,967.75,1089.15Zm21-184.83,13.35-43.83,7.62,43.83C1004,896.69,994.43,896.69,988.71,904.32Zm188.65,0,9.52-43.83,11.44,43.83c-5.72-7.63-17.15-7.63-21,0Zm169.58,659.3,38.11-26.68-43.82,1.9c7.63,5.73,11.43,13.33,5.71,24.78Zm177.21-85.75,24.78-40-40,21c9.52,0,15.25,7.63,15.25,19.06Zm89.57-173.4-7.62-43.82-15.25,41.89c7.62-5.69,17.14-3.79,22.87,1.93ZM1608,1089.15l-13.34-43.83-9.52,43.83C1592.75,1081.52,1600.38,1085.34,1608,1089.15Zm-21-184.83-9.52-43.83-11.43,43.83C1571.79,896.69,1581.33,896.69,1587,904.32Zm-184.82,0-13.35-43.83-11.42,43.83c5.73-7.63,17.14-7.63,24.77,0Zm-263,127.67V923.37h-64.79V1032H1019.2l-7.61,78.12h62.88V1214.9h64.78V1110.11h53.36V1032Zm-45.73-91.46,7.62,3.8,5.72-11.43,7.62,11.43,7.61-3.8-3.8,11.42,5.72,7.63h-7.63v9.52l-9.52-3.81-9.53,3.81v-9.52h-7.61l5.7-7.63Zm-47.63,137.18v9.53l-7.61-5.72-11.44,5.72v-9.53h-7.61l7.61-9.52-3.8-7.61h9.52l5.72-9.54,5.71,9.54h9.53l-5.72,7.61,9.53,9.52Zm70.51,116.23v11.44l-9.52-5.72-9.54,5.72v-11.44l-7.61-1.89,5.71-5.72-1.91-9.53,7.63,1.91,5.72-9.54,7.61,9.54,7.61-1.91-3.8,9.53,5.72,5.72Zm19-101c-7.62,0-3.81-7.62-3.81-7.62,0-3.82-1.9-3.82-3.81-3.82-5.72,0-9.52,7.63-13.33,7.63s-5.72,0-5.72-1.91,7.63-5.72,9.53-7.61c-38.1,0-38.1,15.24-43.82,15.24-9.52,0,7.62-17.15,13.33-22.87-7.61,0-13.33-11.42-21-15.25,1.91-5.71,5.72-3.8,11.43,1.91,0-5.72,1.9-11.44,11.44-11.44,17.14,0,11.42,19.06,13.33,19.06,5.71,0,0-19.06,13.33-19.06,15.26,0,36.21,45.74,19.06,45.74Zm45.74-15.25v9.53l-9.52-5.72-7.63,5.72v-9.53H1152.6l7.61-9.52-1.89-7.61h7.61l5.72-9.54,7.61,9.54h7.62l-5.71,7.61,9.52,9.52Zm63.55,987.65c0,2.68,0,10.74-5.38,8s-5.38-8,0-10.74C1239.35,2062.67,1242,2065.36,1244.72,2065.36ZM1228.6,2068c2.68,2.69,0,5.37-2.68,5.37-5.39,0-8.07-5.37-2.7-8C1223.22,2062.67,1228.6,2065.36,1228.6,2068Zm-21.5,0c-2.7,2.69-5.39,2.69-8.07,2.69-2.69-2.69-2.69-5.37-2.69-8.06C1201.73,2054.62,1212.48,2062.67,1207.1,2068Zm48.37-13.42c0,2.68,0,8.05-2.69,8.05-5.37,0-5.37-2.68-5.37-5.37S1252.78,2051.93,1255.47,2054.62Zm-56.43-2.69c0,2.69-2.68,2.69-5.37,5.37s-5.38,0-8.06-2.68C1182.92,2046.54,1196.36,2043.85,1199,2051.93Zm94.06-2.68a5.8,5.8,0,0,1-5.37,5.37c-2.71,0-8.08,0-8.08-5.37S1293.1,2043.85,1293.1,2049.25Zm-21.51-2.71c0,2.71-2.68,8.08-5.36,8.08s-5.37,0-5.37-2.69C1258.17,2041.17,1268.91,2041.17,1271.59,2046.54Zm86-2.69c0,2.69-2.68,8.08-8,5.4,0-5.4,0-8.08,2.68-8.08C1354.89,2038.48,1357.57,2041.17,1357.57,2043.85Zm-21.48,0c2.69,2.69,0,5.4-2.68,5.4-2.69,2.68-5.37-2.71-5.37-2.71C1325.35,2038.48,1336.09,2035.8,1336.09,2043.85Zm-26.88,2.69c-2.69,2.71-5.37,0-8.06,0a8.18,8.18,0,0,1,0-10.74C1306.52,2035.8,1311.89,2041.17,1309.21,2046.54Zm-53.74-10.74c0,2.68-2.69,8-5.38,8-5.37,0-10.75-10.74-5.37-13.42C1250.09,2030.43,1252.78,2033.11,1255.47,2035.8Zm67.17-2.69c0,2.69,0,5.37-2.68,8.06-2.69-2.69-8.06,0-8.06-5.37S1322.64,2027.74,1322.64,2033.11Zm-129-2.68c0,2.68,0,5.37-2.7,5.37s-8.06,0-8.06-2.69C1180.24,2025.06,1193.67,2022.38,1193.67,2030.43Zm180-2.69c2.68,2.69,0,8.06-5.37,8.06l-2.69-2.69C1363,2027.74,1371,2022.38,1373.71,2027.74ZM1314.58,2017c5.37,5.37-5.37,5.37-8.06,2.68-2.68,0,0-5.37,0-8.08C1311.89,2008.93,1317.26,2011.61,1314.58,2017Zm-80.61,16.1c-2.69,10.74,16.12,13.43,8.07,21.51-10.76,8.05-18.81,5.37-29.56,2.68-10.75-8.05-10.75-21.5-8.07-34.92,2.7-8.06,13.44-10.77,21.51-13.45-2.7,8.08,2.68,18.82,8,24.18Zm10.75-18.79c0,5.37-2.7,8.06-5.38,10.74-5.38,0-5.38-5.37-8.07-8C1231.28,2011.61,1244.72,2003.56,1244.72,2014.32Zm-45.68-5.39c0,2.68,0,5.39-2.68,8.08-2.69,0-8.07,0-5.39-2.69C1188.29,2008.93,1196.36,2003.56,1199,2008.93Zm180,2.68c-2.69,0-2.69,2.71-5.37,5.4-2.69,0-2.69-2.69-5.37-2.69C1365.65,2006.24,1379.08,2000.86,1379.08,2011.61Zm-169.3-10.75c2.7,2.68,0,2.68-2.68,5.37-2.7,0-5.39,0-5.39-2.69C1199,1995.49,1212.48,1995.49,1209.78,2000.86Zm110.17-2.69c0,2.69-2.69,5.37-5.37,8.06a5.77,5.77,0,0,1-5.37-5.37C1306.52,1992.8,1320,1990.12,1320,1998.17Zm43,10.76c0,10.76-5.4,21.5-16.14,24.18s-21.48-2.68-24.19-16.1c0-10.77,8.08-21.51,18.82-24.19,8.06,2.67,18.82,5.35,21.51,16.11Zm-115.56-8.07h-8.07c-5.38-2.69-2.7-10.74,2.68-10.74S1250.09,1995.49,1247.41,2000.86Zm-18.81-8.06c0,2.69-2.68,5.37-5.38,8.06-2.69,0-2.69-2.69-5.38-2.69C1215.16,1990.12,1225.92,1984.75,1228.6,1992.8Zm145.11,5.37c-2.69,2.69-5.37,0-8.06,0,0-2.68,0-8.05,2.69-8.05C1373.71,1990.12,1373.71,1995.49,1373.71,1998.17Zm-69.87,0c-13.45,16.14,8.05,37.62-18.82,40.3-13.43,2.69-24.16-5.37-29.55-13.42,0-13.45-2.69-29.56,13.44-34.93,10.74-5.37,26.87-2.69,34.93,8.05Zm24.2-8.05c0,2.68-5.4,0-8.08,0-2.69-2.69,0-5.37,2.68-8C1328,1979.35,1330.72,1984.75,1328,1990.12Zm-16.15-8a5.77,5.77,0,0,1-5.37,5.36c-2.68,0-8-8.08-2.68-10.76C1306.52,1976.67,1311.89,1976.67,1311.89,1982.07Zm-53.72-2.72c2.69,2.72,0,5.4-2.7,5.4-2.69,2.68-5.38,0-5.38,0C1247.41,1976.67,1258.17,1971.3,1258.17,1979.35Zm-295.61,0a164.81,164.81,0,0,1-102.11,67.19c26.88-37.61,67.19-59.11,104.8-83.29C976,1960.56,965.25,1974,962.56,1979.35Zm-180-13.42c-26.88,32.24-64.49,56.45-102.11,67.18-2.69,0,0-2.68,0-2.68,26.87-32.24,61.81-64.5,102.11-72.55C785.22,1960.56,782.52,1963.25,782.52,1965.93Zm921.71,75.24c-40.3-13.43-86-34.93-99.43-80.61C1642.43,1976.67,1680,2003.56,1704.23,2041.17Zm-107.48,0c-40.33-8.06-80.64-43-99.43-83.29C1537.63,1971.3,1572.56,2006.24,1596.75,2041.17Zm292.88-13.43c-37.61-10.73-80.61-34.92-99.43-72.55C1827.85,1968.62,1865.47,1992.8,1889.63,2027.74ZM602.48,1936.37c-32.24,29.56-72.55,40.3-118.23,40.3,32.25-24.16,72.56-32.24,112.87-45.67C599.8,1931,605.17,1931,602.48,1936.37Zm1375.84,53.75c-13.43,5.37-29.56-2.69-40.3-8-21.5-13.45-45.69-18.82-59.13-37.64v-2.69C1916.52,1947.11,1951.44,1963.25,1978.32,1990.12Zm-679.85-53.75c0,2.69-2.69,5.37-8.08,5.37-2.66-2.68-2.66-8,0-8S1295.78,1933.69,1298.47,1936.37Zm-94.06,0c0,2.69,0,8.06-5.37,5.37-5.37,0-5.37-5.37-2.68-8S1201.73,1933.69,1204.41,1936.37Zm110.17,0c0,2.69,0,5.37-2.69,5.37a5.77,5.77,0,0,1-5.37-5.37C1306.52,1933.69,1317.26,1928.32,1314.58,1936.37Zm-64.49-8c0,2.68,0,5.37-5.37,5.37,0,2.68-2.7,0-5.38-2.69C1239.35,1925.63,1247.41,1923,1250.09,1928.32Zm32.24-2.69A5.77,5.77,0,0,1,1277,1931c-2.68,0-5.37-5.37,0-8C1279.65,1923,1282.33,1923,1282.33,1925.63Zm48.39-5.37c2.69,2.69,0,8.06-2.68,8.06-8.08-2.69-5.4-8.06-2.69-10.74C1328,1917.58,1330.72,1917.58,1330.72,1920.26Zm-134.36,0c0,2.69,0,5.37-2.69,5.37-5.38,0-5.38,0-8.06-2.68C1182.92,1914.87,1196.36,1912.18,1196.36,1920.26Zm878.7,37.62c-13.45,0-34.93,0-51.08-5.37-16.1-8.08-34.92-16.14-51-29.56v-2.69c40.32,0,72.56,13.43,102.12,37.62ZM511.13,1901.43c-29.56,37.61-88.68,32.24-129,24.19v-2.68C422.45,1909.5,465.45,1901.43,511.13,1901.43ZM1277,1912.18c-2.68,2.69-2.68,5.4-5.36,5.4-2.69,2.68-5.37-2.71-5.37-5.4C1266.23,1904.12,1277,1904.12,1277,1912.18Zm-24.18-2.68c0,2.68,2.69,5.37-2.69,5.37-2.68,0-2.68-2.69-5.37-2.69C1244.72,1906.81,1252.78,1904.12,1252.78,1909.5Zm118.24-5.38c0,2.68-2.68,5.37-2.68,5.37-2.69,0-5.37,0-8.06-2.69C1360.28,1901.43,1368.34,1901.43,1371,1904.12Zm-16.13,2.69s0,5.37-2.69,5.37-5.37,0-5.37-2.68C1344.15,1904.12,1354.89,1898.75,1354.89,1906.81Zm-115.54,8.06a20.22,20.22,0,0,1-13.43,18.82c-10.76,2.68-18.82-5.37-21.51-13.43s2.7-18.82,10.75-21.5C1225.92,1896.06,1236.65,1904.12,1239.35,1914.87Zm99.43-13.44c2.68,2.69,0,5.37-2.69,8.06-5.37,0-5.37-2.69-8-5.37C1325.35,1896.06,1338.78,1896.06,1338.78,1901.43ZM1199,1898.75c0,2.68,0,5.37-5.37,8-2.7,0-2.7-2.68-5.38-2.68C1188.29,1898.75,1193.67,1890.69,1199,1898.75Zm182.72-2.69c0,2.69,0,5.37-2.68,5.37-2.69,2.69-5.37,0-5.37-2.68C1373.71,1893.38,1381.76,1893.38,1381.76,1896.06Zm-134.35-2.68c2.68,2.68,0,5.37-2.69,5.37s-2.7,0-5.38-2.69C1236.65,1888,1250.09,1888,1247.41,1893.38Zm29.55-2.69a5.76,5.76,0,0,1-5.37,5.37c-2.68,2.69-2.68,0-2.68-2.68C1266.23,1888,1274.28,1885.32,1277,1890.69ZM1328,1888c2.68,5.37-2.69,5.37-8.08,8,0,10.74,0,26.88-13.42,29.56-10.74,0-21.51-2.68-24.19-13.45s2.68-21.48,13.45-24.16c10.74-8.08,24.16,21.48,24.16-2.69C1322.64,1882.64,1328,1882.64,1328,1888Zm-118.26,2.68c-2.68,2.69-5.38,0-8.07,0,0-2.68,0-8,2.69-8C1209.78,1882.64,1212.48,1885.32,1209.78,1890.69Zm180-5.37c0,2.69,0,8.06-5.37,5.37s-2.68-5.37-2.68-8C1387.13,1882.64,1389.81,1882.64,1389.81,1885.32Zm-158.53,0c0,2.69-5.36,8.06-8.06,5.37s-2.69-8,0-10.76C1228.6,1879.93,1231.28,1882.64,1231.28,1885.32Zm935.15,24.18c0,2.68-2.71,5.37-5.39,2.68-37.62,0-75.24-2.68-107.49-21.47,18.82-10.77,43-2.69,61.82,0C2134.19,1896.06,2150.3,1898.75,2166.43,1909.5Zm-876-32.26c0,2.69-2.66,2.69-2.66,5.4-2.71,0-5.4-2.71-5.4-2.71C1279.65,1874.56,1290.39,1871.87,1290.39,1877.24Zm18.82,0s0,5.4-2.69,2.69c-2.68,2.71-5.37,0-8-2.69C1301.15,1871.87,1306.52,1871.87,1309.21,1877.24Zm83.31-5.37c-2.71,2.69-2.71,2.69-5.39,2.69-5.37,0-5.37-5.37-2.69-8.06C1389.81,1866.5,1392.52,1869.19,1392.52,1871.87Zm-67.17-5.37c0,5.37,0,10.74-5.39,10.74s-2.69-5.37-5.37-5.37C1314.58,1863.82,1322.64,1863.82,1325.35,1866.5Zm-532.07,75.24c-37.62-13.42-75.23-45.66-94-83.29,0-2.68-5.37-5.37,0-5.37C734.15,1871.87,777.15,1898.75,793.28,1941.74Zm-357.39-83.29v2.68c-37.63,18.8-86,8.06-123.62-2.68,0-2.68-2.69-2.68-2.69-5.37C349.9,1842.32,398.26,1850.4,435.89,1858.45Zm937.82,8c0,10.74-2.69,24.19-13.43,26.88s-24.19,0-26.87-13.45c-2.69-10.74,2.68-21.48,13.42-26.85S1368.34,1858.45,1373.71,1866.5Zm13.42-13.42c0,5.37-2.69,10.74-5.37,8.05-5.37-2.68-5.37-8.05,0-8.05C1384.44,1850.4,1384.44,1853.08,1387.13,1853.08Zm-314.39,83.29c5.38,18.82-13.43,0-24.19-5.37-32.24-18.82-67.18-48.36-86-83.31,43,13.44,83.31,48.37,110.18,88.68ZM976,1941.74c-43-18.79-86-51-118.23-94V1845C903.45,1863.82,954.51,1893.38,976,1941.74Zm352-83.29c-2.69,2.68-5.4,0-8.08,0-2.69-2.68,0-8,2.68-10.76C1328,1847.69,1330.72,1853.08,1328,1858.45Zm-169.31,83.29c-40.31-13.42-75.25-56.42-96.74-91.34v-2.71C1099.62,1866.5,1139.93,1898.75,1158.73,1941.74Zm440.7-94c-18.82,43-61.81,75.26-102.11,88.68,5.37-18.79,26.87-37.61,43-51C1559.11,1869.19,1575.24,1853.08,1599.43,1847.69ZM707.29,1931c-37.62-10.74-69.86-56.44-91.36-91.37C656.23,1853.08,691.17,1893.38,707.29,1931Zm983.49-67.18c-26.85,29.56-59.11,56.44-91.35,72.55,13.43-40.29,56.42-69.87,94-88.68C1709.6,1845,1690.78,1858.45,1690.78,1863.82Zm-196.14-8c-26.88,34.92-61.82,67.18-102.12,83.29,2.69-8.06,13.43-10.74,10.74-16.11,24.19-34.93,56.45-67.18,96.75-80.63C1500,1845,1494.64,1850.4,1494.64,1855.77ZM1376.39,1845c0,2.69-2.68,2.69-5.37,2.69,0,0-5.37,0-5.37-2.69C1365.65,1837,1376.39,1839.63,1376.39,1845Zm-37.61-5.37c0,2.69,0,5.37-2.69,8.06-5.37,2.71-5.37-5.37-2.68-8.06C1333.41,1839.63,1338.78,1837,1338.78,1839.63Zm529.37,13.45c-21.5,32.24-56.44,67.18-94.05,77.92,18.81-40.29,59.12-75.23,99.42-94C1876.21,1842.32,1870.84,1847.69,1868.15,1853.08Zm-510.58-10.76c0,2.68-5.37,0-8,0-5.37-2.69,0-8.06,5.37-8.06C1357.57,1834.26,1360.28,1839.63,1357.57,1842.32Zm591.19,5.37c-16.11,29.55-43,64.49-75.24,75.26,2.69-18.82,21.48-37.61,37.61-56.45,13.43-10.73,26.88-24.18,43-34.92C1956.81,1837,1951.44,1842.32,1948.76,1847.69ZM615.92,1909.5c2.69,8.08-5.38,5.37-8.07,2.68-29.55-24.16-56.43-59.1-64.49-96.74C581,1834.26,602.48,1874.56,615.92,1909.5ZM2247,1828.89c-16.14,13.43-40.3,18.8-64.5,21.51-16.11,2.68-34.93,2.68-45.67,0C2166.43,1828.89,2209.43,1826.21,2247,1828.89Zm-88.69-104.79c-2.68,40.29-10.74,83.29-37.61,112.85-2.69-43,13.45-83.3,34.93-115.54C2158.35,1718.73,2158.35,1724.1,2158.35,1724.1ZM368.7,1780.53c0,2.68-5.38,2.68-5.38,5.37,21.51,21.48,48.38,43,72.57,56.42-18.81-29.56-34.94-64.5-34.94-104.8,10.75-5.37,10.75,8.08,16.13,13.45,16.12,29.56,26.86,59.1,26.86,94,0,2.69-2.68-2.68-5.37,0,21.49,16.13,45.68,32.24,72.56,40.32-18.81-34.92-34.93-72.58-40.3-112.87,2.68-5.37,5.37,0,8.07,0,24.18,34.92,37.61,75.24,43,118.24,112.86,51,239.15,59.13,362.77,56.42-37.63-24.16-86-53.73-110.18-96.71,45.68,13.42,86,45.66,115.54,88.66,5.37,2.68-2.69,5.37,0,10.76,102.12-2.71,212.29,0,317.09,0,2.68-2.71,2.68-10.76,8.07-8.08s2.68,8.08,8.06,8.08c8.07,0,2.7-18.82,16.13-10.76,2.68,2.68-2.7,8-2.7,8l-2.69,2.71c83.29,13.43,163.93-8.08,247.22-5.39,64.5-2.69,126.3,2.68,193.48,0,29.56-43,72.56-75.24,112.85-102.11-16.11,43-59.1,80.63-102.11,99.42a2.63,2.63,0,0,0,2.69,2.69c94.05,2.68,182.74-10.74,268.72-32.25,10.76-21.47,13.45-43,24.19-61.78s24.18-37.64,37.61-56.45c0,43-21.48,83.29-51.05,110.17,21.48-2.69,45.67-10.74,67.18-21.48,16.11-21.51,13.43-48.38,26.85-69.9,8.08-18.79,16.13-34.92,29.56-51,2.68,43-18.8,80.6-40.3,112.85,75.24-24.17,147.79-80.61,198.85-150.48-5.37,16.11-18.82,34.93-29.56,48.36,29.56-18.79,59.13-34.92,94.06-40.29-29.56,29.56-67.18,48.37-107.48,48.37C2088.5,1901.42,1930,1931,1766,1949.81c-24.19,2.68-51.07,0-78,5.37,34.93,18.79,80.64,43,107.51,83.29-43-10.74-88.69-32.24-112.88-77.92-2.68-5.37,8.06-2.69,2.69-5.37-112.85-2.69-220.33-8.08-333.21,5.37,16.14,13.42,40.33,16.11,59.13,26.87,26.87,10.74,51.08,24.16,77.92,37.61-13.42-2.68-34.92-2.68-48.36-5.37-24.19-16.13-48.36-34.92-77.92-40.32-2.69,5.4-2.69,10.77-8.08,8.08-8.06-2.68,2.68-13.45-8.06-10.76-2.68,2.68,0,8.08-5.37,8.08-2.68,0-5.37,0-5.37-2.69,8.06-16.13-18.82-10.76-29.55-16.13-5.37,0-8.06-2.69-13.43,2.68,2.69,0,5.37,5.37,2.69,8.06,0,2.68-2.69,2.68-5.4,2.68-8.05-8,8.08-16.11-10.74-13.42-5.37,2.68,2.69,13.42-5.37,10.74-5.37,0-5.37-5.37-8-10.74-45.68,5.37-91.37,24.19-129,48.37-16.12,2.69-32.24,5.37-51.06,5.37,45.68-21.5,91.37-37.61,137-56.44,0-5.37-5.38-2.69-5.38-5.37-53.75-2.68-96.73,0-155.86,0-13.43,40.3-56.43,77.92-96.74,91.37,21.51-32.24,51.06-72.58,86-91.37h-2.68c-56.43,0-118.24-2.68-172,0-2.7,21.48-21.51,37.61-40.31,51.05a177.09,177.09,0,0,1-72.56,32.24c29.56-34.93,69.87-56.42,104.81-80.61,0-5.36-5.38-2.68-8.06-5.36-51.07,0-102.11-2.69-155.86-5.37-32.24,32.24-72.55,53.73-118.23,59.1,13.43-16.11,34.94-32.24,56.43-43,5.38,2.68,8.06-8.06,16.12-8.06,8.07-2.68,18.81-2.68,29.56-8a2.65,2.65,0,0,0-2.7-2.71c-118.23-18.8-225.73-67.19-317.09-147.79-40.29,5.37-83.29-5.37-115.54-26.88-2.7-5.37,2.68,0,2.68-5.37,34.93,2.69,69.87,13.45,99.43,21.51-13.44-16.14-26.88-29.56-34.93-48.38,13.44,10.77,26.87,32.24,43,43-16.12-32.24-32.24-72.58-26.86-115.56,21.49,32.25,26.86,75.25,32.24,112.89Zm1832.66-5.4c-10.77-5.37-2.71-18.79-5.4-29.53,2.69-32.24,10.77-59.13,26.88-83.32,5.38,40.3-5.36,77.92-21.48,112.85Z" transform="translate(-110.28 -426.04)"/><path class="cls-1" d="M695.27,1677.94h15.25l47.64,110.51c1.91,9.52,5.72,15.26,15.24,15.26v7.62H710.52v-7.62c3.8,0,11.43,0,13.34-1.92,3.8-3.8,0-5.7,0-7.63l-7.62-21H668.62a38,38,0,0,0-3.82,17.15c0,11.43,7.62,13.35,17.16,13.35v7.62H626.7v-7.62c17.13-1.92,24.78-17.15,26.66-28.58Zm1177.56,0h13.35l45.72,110.51c5.72,9.52,7.62,15.26,19.08,15.26v7.62h-62.91v-7.62c1.9,0,9.52,0,13.35-1.92,1.88-3.8,0-5.7,0-7.63l-7.63-21h-47.65c-1.89,3.8-7.6,9.52-7.6,17.15,0,11.43,9.52,13.35,21,13.35v7.62h-55.3v-7.62c15.25-1.92,21-17.15,26.71-28.58l41.91-97.19Zm15.26,83.85L1869,1714.14l-20.94,47.65Zm-173.4,49.54v-7.62h11.46c9.52-1.92,7.6-5.72,7.6-13.35v-97.14a1.89,1.89,0,0,0-1.9-2c-3.82-1.89-7.62-1.89-11.42-1.89h-5.72v-7.63h70.53v7.63h-3.83c-3.83,0-7.63,0-11.43,1.89-1.89,2-1.89,2-1.89,5.75v97.14c0,1.92,0,7.63,1.89,7.63,3.8,1.92,3.8,0,3.8,1.92h11.44v7.62Zm-150.51,0v-7.62c5.69,0,9.52,0,15.23-1.92,1.92,0,1.92-5.7,1.92-7.63v-87.62c0-15.28,3.8-15.28-11.46-17.18h-5.69v-7.62h72.4v7.62h-13.32c-7.63,0-7.63,1.9-7.63,9.55v91.45c0,7.63,0,11.43,7.63,11.43,5.69,1.92,7.6,1.92,13.32,1.92,26.68,0,36.22-15.26,45.72-41.92h7.62l-3.8,49.54Zm-95.3-133.39h13.34l47.65,110.51c5.7,9.52,5.7,15.26,19.06,15.26v7.62h-66.71v-7.62c3.83,0,11.43,0,13.35-1.92,1.89-3.8,1.89-5.7,0-7.63l-7.63-21h-47.65a38.12,38.12,0,0,0-3.82,17.15c0,11.43,9.54,13.35,17.17,13.35v7.62h-51.48v-7.62c13.37-1.92,21-17.15,24.8-28.58l41.92-97.19Zm13.34,83.85-17.12-47.65L1446,1761.79Zm-167.67-80h13.35c11.4,0,20.94,0,28.54,7.62,11.45,3.86,17.17,15.28,17.17,22.88,0,22.88-21,32.38-41.91,34.31,15.22,1.89,24.74,13.32,28.57,28.6l1.89,11.42c0,3.8,1.92,7.6,5.72,11.43v3.8c9.52,1.92,9.52-13.32,9.52-19h11.43c0,3.82,0,7.62-3.8,11.42-1.9,15.25-15.23,22.88-28.6,22.88-9.52,0-15.23-1.92-21-11.45-3.8-3.8-7.6-9.49-7.6-17.12V1777c-1.92-15.23-1.92-24.78-21-28.58H1293.6V1798c0,3.8,3.8,3.8,5.7,5.72h13.34v7.62h-70.51v-7.62h9.54c9.5,0,9.5-5.72,9.5-9.55v-102.9a37.35,37.35,0,0,0-13.32-1.89h-5.72v-7.63h72.42Zm-21,57.17h13.32c19.06,0,28.58-5.75,28.58-26.68,0-19-7.6-22.88-24.78-22.88a37.43,37.43,0,0,0-13.32,1.89c-3.8,0-3.8,5.75-3.8,11.46v36.21Zm-203.89-7.63,3.8-49.54h122l3.8,49.54h-11.42c-1.91-19-9.55-41.92-30.51-41.92-3.82,0-5.72,0-5.72,1.9v102.9c0,7.63,0,7.63,7.62,9.55h13.36v7.62h-76.23v-7.62c7.62,0,13.34,0,19.07-1.92,0,0,1.9,0,1.9-3.8V1691.26c0-1.9-1.9-1.9-5.73-1.9-20.94,0-28.57,22.88-30.48,41.92Zm-129.57,30.51h7.62c7.62,20.94,26.68,43.8,49.54,43.8,13.33,0,26.66-3.8,26.66-19,0-13.35-7.61-19-19-21l-13.36-3.8c-15.22-1.92-26.68-5.72-36.19-13.35-11.43-3.82-15.24-17.15-15.24-28.6,0-28.57,21-41.89,45.71-41.89,13.35,0,24.78,3.8,34.31,7.63l7.63-7.63h9.53l1.89,47.65h-7.61c-7.64-19-24.77-40-47.67-40-9.5,0-22.84,5.69-22.84,21,0,13.29,9.52,17.12,21,19l13.32,1.89c24.77,5.69,51.45,13.32,51.45,45.72,0,13.35-7.62,22.88-15.24,32.38-11.44,9.52-24.77,11.45-34.31,11.45-13.36,0-26.68-5.7-36.2-13.32l-13.33,11.4h-7.62v-53.33Zm-179.14-80h70.52v7.62c-3.8,1.9-11.43,0-17.15,1.9v70.53c0,7.62,0,19,1.89,24.77,3.82,7.6,5.74,9.52,11.46,11.43a34.82,34.82,0,0,0,17.13,3.8c11.45,0,21-3.8,26.7-11.43,7.59-9.52,7.59-20.95,7.59-28.57v-49.55c0-7.6,0-19-9.5-21-5.74-1.89-7.63-1.89-11.46-1.89v-7.63h53.37v7.63c-19.06,1.89-20.94,9.54-20.94,24.77v53.37c0,5.69,0,9.49-3.83,19-1.91,9.52-9.53,19-21,22.85-7.63,5.7-21,7.63-30.49,7.63-11.43,0-28.59-1.92-40-11.45a40.56,40.56,0,0,1-15.25-32.37V1697c0-3.8,0-5.75-1.88-5.75-3.83-1.89-13.38-1.89-17.19-1.89v-7.65Zm-70.48,80-17.14-47.65-19.06,47.65Z" transform="translate(-110.28 -426.04)"/></svg>