<svg id="Layer_1" data-name="Layer 1" xmlns="http://www.w3.org/2000/svg" viewBox="0 0 1766.69 2003.61"><defs><style>.cls-1{fill:#fff;}</style></defs><title>html-white</title><path class="cls-1" d="M163.86,1803.32l721.49,200.29,723.47-200.56,161-1803H3.08ZM886.43,368.62H1439.7L1434.41,428l-10.08,112.12-4.43,49.71H573.55l20.21,226.48h806l-5.39,59.39-52,582.28-3.33,37.36L886.43,1620.75v0l-1,.28L432.35,1495.3l-31-347.27h222l15.75,176.39,246.32,66.51.2,0h0l246.67-66.58L1158,1037.44H391.49L337.13,428l-5.29-59.34Z" transform="translate(-3.08 0)"/><polygon class="cls-1" points="882.58 1390.88 882.58 1620.96 883.35 1620.75 883.35 1390.68 882.58 1390.88"/><rect class="cls-1" x="882.58" y="816.27" width="0.76" height="221.17"/><polygon class="cls-1" points="882.58 589.25 882.58 589.26 882.58 589.79 883.35 589.79 883.35 368.62 882.58 368.62 882.58 589.25"/></svg>