<svg id="Layer_1" data-name="Layer 1" xmlns="http://www.w3.org/2000/svg" viewBox="0 0 1808.5 1695.97"><defs><style>.cls-1{fill:#fff;fill-rule:evenodd;}</style></defs><title>macquarie-bank-white</title><path class="cls-1" d="M1516.45,220.64c-60.57-51.92-129.8-97.35-203.37-129.8-45.42-21.63-93-41.1-142.74-54.07a981.18,981.18,0,0,0-532.18,0c-49.75,13-97.33,32.44-142.77,51.92-75.71,34.6-144.93,80-205.52,132C110.32,374.23,0,597,0,841.49c0,253.09,106,482.4,289.87,638.14,60.59,51.93,129.81,95.2,205.52,132,45.42,19.45,93,36.78,142.77,49.75A1041,1041,0,0,0,904.25,1696c93,0,181.71-13,266.09-34.61,49.75-13,97.32-30.3,142.74-49.75,75.75-34.6,145-77.87,203.37-129.8,183.89-157.92,292-387.21,292-640.32,0-244.45-110.34-465.11-292-620.85Zm-1021,1345.51c-73.56-32.42-144.94-80-205.52-138.44C140.63,1287.09,39,1072.94,43.28,843.64c4.32-231.45,99.5-426.16,246.61-566.76,60.58-58.42,129.8-106,205.52-142.79,13-8.65,28.11-13,41.1-19.46-13,8.65-28.12,17.3-41.1,26C419.69,192.5,348.3,253.07,289.89,324.46,175.25,458.59,99.53,629.49,97.36,843.64c-4.31,214.17,73.54,391.55,192.53,530v-2.16a960.66,960.66,0,0,0,205.52,181.71c13,10.82,28.11,19.48,41.1,28.12C523.52,1577,508.38,1572.66,495.41,1566.15Zm142.77-398c-56.24-32.45-110.32-86.55-142.77-151.45-26-51.91-43.27-110.32-43.27-170.89,2.16-60.57,17.3-116.81,43.27-166.57,32.45-64.89,84.35-116.82,142.77-153.59a325.32,325.32,0,0,1,73.55-34.6c-26,17.3-51.92,36.77-73.55,58.41-73.55,69.22-116.82,160.08-119,296.36-2.17,134.12,45.42,225,119,294.2,21.63,21.63,47.58,41.11,73.55,58.41-23.8-6.5-49.77-17.31-73.55-30.28Zm0-90.88c-45.44-62.74-73.55-140.61-73.55-231.47s28.11-168.74,73.55-231.46c64.9-86.54,162.25-140.61,266.08-153.59,103.81,13,201.19,67,266.09,153.59,45.42,60.57,73.54,140.6,73.54,231.46s-28.12,168.73-73.54,231.47c-64.9,86.53-162.28,138.44-266.09,149.25C800.43,1215.72,703.08,1163.82,638.18,1077.27Zm532.17,90.88c-23.81,13-49.78,23.78-73.56,30.27,26-17.3,49.75-36.78,73.56-58.42,73.54-69.2,121.14-160.07,119-294.19-2.15-136.29-45.42-227.14-119-296.36-23.81-21.63-47.6-41.1-73.56-58.41,23.78,8.65,49.75,19.46,73.56,34.6A407.49,407.49,0,0,1,1313.1,679.23c26,47.6,41.11,106,41.11,166.57,2.15,62.73-15.15,121.15-41.11,170.89-34.62,64.91-86.52,119-142.75,151.46Zm346.1,259.56c-60.57,58.42-129.8,106-203.37,138.44-13,6.51-28.11,10.84-43.24,15.15,15.13-8.64,30.28-17.3,43.24-28.12,73.57-49.75,145-110.32,203.37-179.55,119-138.44,196.86-315.83,194.7-530-4.33-214.15-80.05-385-194.7-519.18-58.41-71.39-127.62-131.95-203.37-181.7-13-10.82-28.11-19.47-43.24-28.12,15.13,6.48,30.28,13,43.24,19.47,73.57,36.78,145,86.53,203.37,142.78,147.1,140.61,244.46,335.31,248.76,566.77,4.33,229.28-97.32,443.45-248.76,584.05Z"/></svg>