<svg id="Layer_1" data-name="Layer 1" xmlns="http://www.w3.org/2000/svg" viewBox="0 0 95 38.32"><defs><style>.cls-1{fill:#fff;}</style></defs><title>nbn-white</title><path class="cls-1" d="M1,10.84A1.81,1.81,0,0,1,2.82,9a1.84,1.84,0,0,1,1.85,1.85v.79a5.79,5.79,0,0,1,5-2.79c3.6,0,5.69,2.43,5.69,6.12V23.5a1.78,1.78,0,0,1-1.82,1.82,1.81,1.81,0,0,1-1.84-1.82V16.08c0-2.48-1.24-3.91-3.42-3.91s-3.6,1.49-3.6,4V23.5a1.81,1.81,0,0,1-1.85,1.82A1.81,1.81,0,0,1,1,23.5Z" transform="translate(-1 -0.84)"/><path class="cls-1" d="M18,4.73a1.79,1.79,0,0,1,1.81-1.82,1.81,1.81,0,0,1,1.85,1.82v7.11a6.42,6.42,0,0,1,5.45-3c3.76,0,7.42,3,7.42,8.3v.06c0,5.3-3.63,8.3-7.42,8.3a6.52,6.52,0,0,1-5.45-2.82v.82a1.83,1.83,0,0,1-3.66,0ZM30.77,17.2v-.06c0-3.09-2.09-5.12-4.58-5.12a4.82,4.82,0,0,0-4.66,5.12v.06a4.82,4.82,0,0,0,4.66,5.12c2.52,0,4.58-2,4.58-5.12" transform="translate(-1 -0.84)"/><path class="cls-1" d="M36.46,10.84A1.81,1.81,0,0,1,38.28,9a1.84,1.84,0,0,1,1.85,1.85v.79a5.79,5.79,0,0,1,5-2.79c3.6,0,5.69,2.43,5.69,6.12V23.5a1.83,1.83,0,0,1-3.66,0V16.08c0-2.48-1.24-3.91-3.42-3.91s-3.61,1.49-3.61,4V23.5a1.83,1.83,0,0,1-3.66,0Z" transform="translate(-1 -0.84)"/><path class="cls-1" d="M50.39,5.18h-.86a.3.3,0,0,1-.29-.29.28.28,0,0,1,.29-.29h2.35a.28.28,0,0,1,.28.29.29.29,0,0,1-.28.29H51V7.86a.32.32,0,0,1-.32.31.31.31,0,0,1-.31-.31V5.18Z" transform="translate(-1 -0.84)"/><path class="cls-1" d="M52.81,4.89a.31.31,0,0,1,.31-.31h.07a.33.33,0,0,1,.28.16l1.08,1.69,1.08-1.69a.29.29,0,0,1,.28-.16H56a.31.31,0,0,1,.31.31v3a.31.31,0,0,1-.31.31.32.32,0,0,1-.32-.31V5.73L54.8,7a.31.31,0,0,1-.27.17A.3.3,0,0,1,54.28,7l-.86-1.29V7.86a.31.31,0,0,1-.62,0v-3Z" transform="translate(-1 -0.84)"/><path class="cls-1" d="M86.54,18.15a1,1,0,0,0,.54-.9,1,1,0,0,0-.54-.91,1,1,0,0,0,.37-1,1.05,1.05,0,0,0-.68-.8,1,1,0,0,0,.19-1,1,1,0,0,0-.81-.67,1,1,0,0,0-.9-1.56,1,1,0,0,0-.18-1,1.05,1.05,0,0,0-1-.36,1,1,0,0,0-.35-1,1.06,1.06,0,0,0-1-.17,1,1,0,0,0-.51-.91,1,1,0,0,0-1,0,1,1,0,0,0-1.7-.62,1,1,0,0,0-.8-.68,1,1,0,0,0-1,.36,1,1,0,0,0-1.81,0,1,1,0,0,0-1.78.31,1.06,1.06,0,0,0-1-.19,1,1,0,0,0-.67.81,1.06,1.06,0,0,0-1,0,1,1,0,0,0-.52.92,1,1,0,0,0-1.38,1.16,1,1,0,0,0-1,.35,1,1,0,0,0-.17,1,1.05,1.05,0,0,0-.92.52,1,1,0,0,0,0,1,1,1,0,0,0-.82.67,1.06,1.06,0,0,0,.19,1,1.05,1.05,0,0,0-.68.8,1,1,0,0,0,.37,1,1,1,0,0,0-.54.91,1,1,0,0,0,.54.9,1,1,0,0,0-.37,1,1,1,0,0,0,.68.8A1,1,0,0,0,66,21a1,1,0,0,0,.81.67,1,1,0,0,0,0,1.05,1,1,0,0,0,.92.51,1,1,0,0,0,.17,1,1,1,0,0,0,1,.35,1,1,0,0,0,1.38,1.16,1,1,0,0,0,1.57.91,1,1,0,0,0,1.7.62,1,1,0,0,0,1.78.31,1,1,0,0,0,1.81,0,1,1,0,0,0,1.78-.31,1,1,0,0,0,1,.19,1,1,0,0,0,.67-.81,1,1,0,0,0,1,0,1,1,0,0,0,.52-.91,1,1,0,0,0,1.38-1.16,1.05,1.05,0,0,0,1-.36,1,1,0,0,0,.18-1,1,1,0,0,0,.91-.52,1,1,0,0,0,0-1.05,1,1,0,0,0,.62-1.7,1,1,0,0,0,.68-.79,1,1,0,0,0-.37-1m-1.79.6a1,1,0,0,0,.23.85,1,1,0,0,0-.62.61,1,1,0,0,0,.08.87,1.05,1.05,0,0,0-.72.5,1,1,0,0,0-.07.87,1,1,0,0,0-.8.37,1,1,0,0,0-.22.85,1,1,0,0,0-1.21,1,1,1,0,0,0-.88.07,1.05,1.05,0,0,0-.5.72,1,1,0,0,0-1.48.54,1,1,0,0,0-.85-.23,1,1,0,0,0-.71.5,1.08,1.08,0,0,0-.79-.37,1,1,0,0,0-.8.37,1,1,0,0,0-.71-.5,1,1,0,0,0-.85.23,1,1,0,0,0-.61-.63,1.12,1.12,0,0,0-.88.08,1,1,0,0,0-.49-.71,1,1,0,0,0-.87-.07,1,1,0,0,0-.37-.8,1.07,1.07,0,0,0-.85-.22,1,1,0,0,0-1-1.22,1.07,1.07,0,0,0-.08-.87,1,1,0,0,0-.72-.5,1,1,0,0,0-.54-1.48A1,1,0,0,0,67.16,18a1.06,1.06,0,0,0,.37-.79,1.08,1.08,0,0,0-.37-.8,1,1,0,0,0,.5-.71,1,1,0,0,0-.23-.85,1,1,0,0,0,.62-.61,1,1,0,0,0-.08-.87,1.06,1.06,0,0,0,.72-.5,1,1,0,0,0,.08-.87,1,1,0,0,0,1-1.21,1,1,0,0,0,.85-.23A1,1,0,0,0,71,9.81a1.07,1.07,0,0,0,.87-.08,1,1,0,0,0,.5-.72,1.05,1.05,0,0,0,.87.09,1.07,1.07,0,0,0,.62-.63,1,1,0,0,0,1.55-.27A1,1,0,0,0,77,8.2a1,1,0,0,0,.71.5,1,1,0,0,0,.85-.23,1.05,1.05,0,0,0,.61.63A1.08,1.08,0,0,0,80.05,9a1,1,0,0,0,.49.72,1.09,1.09,0,0,0,.88.08,1,1,0,0,0,.36.79,1.06,1.06,0,0,0,.85.22,1.07,1.07,0,0,0,.22.85,1,1,0,0,0,.8.37,1,1,0,0,0,.07.87,1.08,1.08,0,0,0,.72.5A1,1,0,0,0,85,14.89a1,1,0,0,0-.23.85,1,1,0,0,0,.5.71,1.08,1.08,0,0,0-.37.8,1,1,0,0,0,.38.79,1,1,0,0,0-.51.71" transform="translate(-1 -0.84)"/><path class="cls-1" d="M69.18,26.87a1.06,1.06,0,1,1-1.06-1.06,1.05,1.05,0,0,1,1.06,1.06" transform="translate(-1 -0.84)"/><path class="cls-1" d="M67.64,25.32a1.06,1.06,0,1,1-1.06-1.05,1.06,1.06,0,0,1,1.06,1.05" transform="translate(-1 -0.84)"/><path class="cls-1" d="M66.38,23.52a1.06,1.06,0,1,1-2.11,0,1.06,1.06,0,0,1,2.11,0" transform="translate(-1 -0.84)"/><path class="cls-1" d="M65.45,21.54a1.06,1.06,0,1,1-1-1.05,1,1,0,0,1,1,1.05" transform="translate(-1 -0.84)"/><path class="cls-1" d="M64.88,19.42a1,1,0,1,1-1-1.05,1.05,1.05,0,0,1,1,1.05" transform="translate(-1 -0.84)"/><path class="cls-1" d="M64.69,17.25a1.06,1.06,0,0,1-2.11,0,1.06,1.06,0,1,1,2.11,0" transform="translate(-1 -0.84)"/><path class="cls-1" d="M64.88,15.06a1,1,0,1,1-1-1.05,1.05,1.05,0,0,1,1,1.05" transform="translate(-1 -0.84)"/><path class="cls-1" d="M65.45,13a1.06,1.06,0,1,1-1-1.06,1,1,0,0,1,1,1.06" transform="translate(-1 -0.84)"/><path class="cls-1" d="M66.38,11A1.06,1.06,0,1,1,65.32,9.9,1.05,1.05,0,0,1,66.38,11" transform="translate(-1 -0.84)"/><path class="cls-1" d="M67.64,9.17a1.06,1.06,0,1,1-1.06-1.06,1.07,1.07,0,0,1,1.06,1.06" transform="translate(-1 -0.84)"/><path class="cls-1" d="M77.26,4.68a1.06,1.06,0,1,1-1.05-1.06,1.06,1.06,0,0,1,1.05,1.06" transform="translate(-1 -0.84)"/><path class="cls-1" d="M79.44,4.87a1.06,1.06,0,0,1-2.11,0,1.06,1.06,0,1,1,2.11,0" transform="translate(-1 -0.84)"/><path class="cls-1" d="M85.34,7.62a1.06,1.06,0,1,1-1.06-1.06,1.06,1.06,0,0,1,1.06,1.06" transform="translate(-1 -0.84)"/><path class="cls-1" d="M86.89,9.17a1.06,1.06,0,1,1-1.06-1.06,1.06,1.06,0,0,1,1.06,1.06" transform="translate(-1 -0.84)"/><path class="cls-1" d="M88.14,11A1.06,1.06,0,1,1,87.08,9.9,1.06,1.06,0,0,1,88.14,11" transform="translate(-1 -0.84)"/><path class="cls-1" d="M89.07,13A1.06,1.06,0,1,1,88,11.89,1.05,1.05,0,0,1,89.07,13" transform="translate(-1 -0.84)"/><path class="cls-1" d="M89.64,15.06A1.06,1.06,0,1,1,88.58,14a1.05,1.05,0,0,1,1.06,1.05" transform="translate(-1 -0.84)"/><path class="cls-1" d="M89.83,17.25a1.06,1.06,0,1,1-1.06-1.06,1.05,1.05,0,0,1,1.06,1.06" transform="translate(-1 -0.84)"/><path class="cls-1" d="M89.64,19.42a1.06,1.06,0,1,1-1.06-1.05,1.05,1.05,0,0,1,1.06,1.05" transform="translate(-1 -0.84)"/><path class="cls-1" d="M89.07,21.54A1.06,1.06,0,1,1,88,20.49a1,1,0,0,1,1.06,1.05" transform="translate(-1 -0.84)"/><path class="cls-1" d="M88.14,23.52a1.06,1.06,0,1,1-1-1.05,1.06,1.06,0,0,1,1,1.05" transform="translate(-1 -0.84)"/><path class="cls-1" d="M86.89,25.32a1.06,1.06,0,1,1-1.06-1.06,1.06,1.06,0,0,1,1.06,1.06" transform="translate(-1 -0.84)"/><path class="cls-1" d="M85.34,26.87a1.06,1.06,0,0,1-2.12,0,1.06,1.06,0,0,1,2.12,0" transform="translate(-1 -0.84)"/><path class="cls-1" d="M83.54,28.13a1.06,1.06,0,0,1-2.11,0,1.06,1.06,0,1,1,2.11,0" transform="translate(-1 -0.84)"/><path class="cls-1" d="M81.56,29.05A1.06,1.06,0,1,1,80.5,28a1.05,1.05,0,0,1,1.06,1.05" transform="translate(-1 -0.84)"/><path class="cls-1" d="M75.08,4.87A1.06,1.06,0,1,1,74,3.82a1,1,0,0,1,1.06,1.05" transform="translate(-1 -0.84)"/><path class="cls-1" d="M65.35,27.11a.91.91,0,1,1-.91-.91.91.91,0,0,1,.91.91" transform="translate(-1 -0.84)"/><path class="cls-1" d="M84.8,30.54a.92.92,0,1,1-.91-.91.92.92,0,0,1,.91.91" transform="translate(-1 -0.84)"/><path class="cls-1" d="M87,29a.91.91,0,0,1-1.82,0A.91.91,0,1,1,87,29" transform="translate(-1 -0.84)"/><path class="cls-1" d="M88.89,27.11a.92.92,0,1,1-1.83,0,.92.92,0,0,1,1.83,0" transform="translate(-1 -0.84)"/><path class="cls-1" d="M90.42,24.92a.91.91,0,1,1-.91-.91.91.91,0,0,1,.91.91" transform="translate(-1 -0.84)"/><path class="cls-1" d="M91.55,22.49a.91.91,0,1,1-.91-.91.92.92,0,0,1,.91.91" transform="translate(-1 -0.84)"/><path class="cls-1" d="M92.24,19.91a.91.91,0,1,1-.91-.91.91.91,0,0,1,.91.91" transform="translate(-1 -0.84)"/><path class="cls-1" d="M92.47,17.25a.9.9,0,0,1-.9.91.91.91,0,1,1,0-1.82.89.89,0,0,1,.9.91" transform="translate(-1 -0.84)"/><path class="cls-1" d="M92.24,14.58a.91.91,0,1,1-.91-.91.91.91,0,0,1,.91.91" transform="translate(-1 -0.84)"/><path class="cls-1" d="M91.55,12a.91.91,0,1,1-.91-.91.91.91,0,0,1,.91.91" transform="translate(-1 -0.84)"/><path class="cls-1" d="M90.42,9.56a.91.91,0,1,1-.91-.91.91.91,0,0,1,.91.91" transform="translate(-1 -0.84)"/><path class="cls-1" d="M88.89,7.37A.92.92,0,1,1,88,6.46a.92.92,0,0,1,.92.91" transform="translate(-1 -0.84)"/><path class="cls-1" d="M87,5.48a.91.91,0,1,1-.91-.91.91.91,0,0,1,.91.91" transform="translate(-1 -0.84)"/><path class="cls-1" d="M84.8,3.94A.92.92,0,1,1,83.89,3a.92.92,0,0,1,.91.91" transform="translate(-1 -0.84)"/><path class="cls-1" d="M63.81,24.92a.9.9,0,0,1-.9.91.91.91,0,1,1,.9-.91" transform="translate(-1 -0.84)"/><path class="cls-1" d="M62.69,22.49a.92.92,0,1,1-.92-.91.92.92,0,0,1,.92.91" transform="translate(-1 -0.84)"/><path class="cls-1" d="M62,19.91a.91.91,0,1,1-.91-.91.91.91,0,0,1,.91.91" transform="translate(-1 -0.84)"/><path class="cls-1" d="M61.76,17.25a.91.91,0,1,1-1.82,0,.91.91,0,1,1,1.82,0" transform="translate(-1 -0.84)"/><path class="cls-1" d="M62,14.58a.91.91,0,0,1-1.82,0,.91.91,0,0,1,1.82,0" transform="translate(-1 -0.84)"/><path class="cls-1" d="M62.69,12a.92.92,0,1,1-.92-.91.92.92,0,0,1,.92.91" transform="translate(-1 -0.84)"/><path class="cls-1" d="M89.46,36.88a.53.53,0,0,1-.53.53.53.53,0,1,1,0-1.06.53.53,0,0,1,.53.53" transform="translate(-1 -0.84)"/><path class="cls-1" d="M87.34,36.88a.53.53,0,1,1-.53-.53.53.53,0,0,1,.53.53" transform="translate(-1 -0.84)"/><path class="cls-1" d="M88.66,38.63a.53.53,0,1,1-.53-.53.53.53,0,0,1,.53.53" transform="translate(-1 -0.84)"/><path class="cls-1" d="M89.92,33a.53.53,0,1,1-.53-.53.53.53,0,0,1,.53.53" transform="translate(-1 -0.84)"/><path class="cls-1" d="M92.5,30.43a.53.53,0,1,1-1.06,0,.53.53,0,0,1,1.06,0" transform="translate(-1 -0.84)"/><path class="cls-1" d="M94.6,27.43a.54.54,0,0,1-.53.54.53.53,0,0,1-.53-.54.52.52,0,0,1,.53-.52.52.52,0,0,1,.53.52" transform="translate(-1 -0.84)"/><path class="cls-1" d="M96,24.27a.53.53,0,0,1-1.06,0,.53.53,0,1,1,1.06,0" transform="translate(-1 -0.84)"/><path class="cls-1" d="M63,28.91a.72.72,0,1,1-.72-.72.72.72,0,0,1,.72.72" transform="translate(-1 -0.84)"/><path class="cls-1" d="M61.2,26.32a.72.72,0,1,1-.71-.72.71.71,0,0,1,.71.72" transform="translate(-1 -0.84)"/><path class="cls-1" d="M59.87,23.45a.72.72,0,1,1-.72-.72.72.72,0,0,1,.72.72" transform="translate(-1 -0.84)"/><path class="cls-1" d="M59.05,20.4a.72.72,0,1,1-.72-.72.71.71,0,0,1,.72.72" transform="translate(-1 -0.84)"/><path class="cls-1" d="M58.77,17.25a.72.72,0,1,1-.72-.72.71.71,0,0,1,.72.72" transform="translate(-1 -0.84)"/><path class="cls-1" d="M59.05,14.09a.72.72,0,1,1-.72-.72.72.72,0,0,1,.72.72" transform="translate(-1 -0.84)"/><path class="cls-1" d="M88.59,3.37a.72.72,0,1,1-.72-.72.72.72,0,0,1,.72.72" transform="translate(-1 -0.84)"/><path class="cls-1" d="M95.06,17.24a.72.72,0,1,1-.72-.71.72.72,0,0,1,.72.71" transform="translate(-1 -0.84)"/><path class="cls-1" d="M94.8,20.4a.72.72,0,0,1-1.44,0,.72.72,0,1,1,1.44,0" transform="translate(-1 -0.84)"/><path class="cls-1" d="M94,23.45a.72.72,0,1,1-.72-.72.72.72,0,0,1,.72.72" transform="translate(-1 -0.84)"/><path class="cls-1" d="M92.64,26.32a.72.72,0,1,1-.71-.72.71.71,0,0,1,.71.72" transform="translate(-1 -0.84)"/><path class="cls-1" d="M90.83,28.91a.72.72,0,1,1-.72-.72.72.72,0,0,1,.72.72" transform="translate(-1 -0.84)"/><path class="cls-1" d="M88.59,31.15a.72.72,0,1,1-.71-.72.71.71,0,0,1,.71.72" transform="translate(-1 -0.84)"/><path class="cls-1" d="M86,33a.72.72,0,1,1-.72-.72A.72.72,0,0,1,86,33" transform="translate(-1 -0.84)"/><path class="cls-1" d="M86,1.56A.72.72,0,1,1,85.3.84a.72.72,0,0,1,.72.72" transform="translate(-1 -0.84)"/><path class="cls-1" d="M80.51,17.19A4.22,4.22,0,1,1,76.29,13a4.22,4.22,0,0,1,4.22,4.21" transform="translate(-1 -0.84)"/><path class="cls-1" d="M69.66,13.27a1.16,1.16,0,1,0,1.16-1.16,1.16,1.16,0,0,0-1.16,1.16" transform="translate(-1 -0.84)"/><path class="cls-1" d="M84,17.25a1.13,1.13,0,0,0-1-1.12A1.14,1.14,0,0,0,82.47,14a1.12,1.12,0,0,0,.28-.73,1.16,1.16,0,0,0-1.15-1.16,1.36,1.36,0,0,0-.41.08,1.1,1.1,0,0,0,.06-.26,1.15,1.15,0,0,0-1.16-1.15,1.11,1.11,0,0,0-.77.31c0-.05,0-.09,0-.13a1.15,1.15,0,0,0-1.15-1.15,1.14,1.14,0,0,0-.9.45,1.13,1.13,0,0,0-2.17,0,1.12,1.12,0,0,0-.89-.45A1.15,1.15,0,0,0,73.07,11a.79.79,0,0,0,0,.13,1.16,1.16,0,0,0-.78-.31,1.15,1.15,0,1,0,1.16,1.15s0-.08,0-.13a1.17,1.17,0,0,0,.78.32,1.15,1.15,0,0,0,1.08-.82,1.11,1.11,0,0,0,1.79,0,1.15,1.15,0,0,0,1.09.81A1.12,1.12,0,0,0,79,11.8s0,.08,0,.13a1.14,1.14,0,0,0,1.15,1.15,1,1,0,0,0,.4-.08,1.17,1.17,0,0,0,0,.27,1.15,1.15,0,0,0,1.09,1.14,1.11,1.11,0,0,0,.7,1.85,1.12,1.12,0,0,0,0,2,1.11,1.11,0,0,0-.7,1.85,1.14,1.14,0,0,0-1.09,1.14,1.09,1.09,0,0,0,0,.26,1.24,1.24,0,0,0-.4-.08,1.15,1.15,0,0,0-1.15,1.15c0,.05,0,.09,0,.13a1.16,1.16,0,0,0-.77-.31,1.14,1.14,0,0,0-1.09.81,1.13,1.13,0,0,0-.89-.46,1.15,1.15,0,0,0-.9.46,1.13,1.13,0,0,0-1.86-.5.5.5,0,0,0,0-.13,1.16,1.16,0,0,0-1.16-1.15,1.35,1.35,0,0,0-.4.08,1.09,1.09,0,0,0,0-.26,1.15,1.15,0,0,0-1.08-1.14,1.12,1.12,0,0,0-.7-1.85,1.13,1.13,0,0,0,0-2,1.14,1.14,0,1,0-1.33-1.12,1.16,1.16,0,0,0,.58,1,1.12,1.12,0,0,0,0,2.23,1.16,1.16,0,0,0-.58,1,1.15,1.15,0,0,0,1.08,1.14,1.18,1.18,0,0,0-.28.73,1.16,1.16,0,0,0,1.16,1.16,1.11,1.11,0,0,0,.4-.09,1.17,1.17,0,0,0,0,.27,1.15,1.15,0,0,0,1.15,1.16,1.17,1.17,0,0,0,.78-.32.61.61,0,0,0,0,.13,1.15,1.15,0,0,0,1.16,1.15,1.12,1.12,0,0,0,.89-.45,1.13,1.13,0,0,0,2.17,0,1.14,1.14,0,0,0,2-.7c0-.05,0-.08,0-.13a1.12,1.12,0,0,0,.77.32,1.16,1.16,0,0,0,1.16-1.16,1.18,1.18,0,0,0-.06-.27,1.12,1.12,0,0,0,.41.09,1.16,1.16,0,0,0,1.15-1.16,1.12,1.12,0,0,0-.28-.73A1.14,1.14,0,0,0,83,18.36a1.13,1.13,0,0,0,1-1.11" transform="translate(-1 -0.84)"/></svg>