<svg id="Layer_1" data-name="Layer 1" xmlns="http://www.w3.org/2000/svg" viewBox="0 0 2206.51 1963.17"><defs><style>.cls-1{fill:#fff;}</style></defs><title>react-white</title><path class="cls-1" d="M1961,778.89h0q-35.23-12.09-71-22.39,5.94-24.12,11-48.44c53.77-261,18.61-471.27-101.44-540.49-115.1-66.38-303.36,2.84-493.49,168.29q-28.1,24.51-54.93,50.42-18-17.23-36.57-33.77C1015.21,175.58,815.48,101,695.55,170.45,580.56,237,546.49,434.7,594.9,682.05q7.23,36.75,16.31,73.09c-28.26,8-55.56,16.58-81.67,25.68-233.6,81.44-382.79,209.09-382.79,341.49,0,136.75,160.14,273.91,403.47,357.07q29.6,10.08,59.67,18.66-9.76,39.14-17.33,78.77c-46.15,243.06-10.11,436.05,104.58,502.21,118.46,68.31,317.28-1.91,510.89-171.14q23-20.07,46-42.44,29.06,28,59.65,54.42c187.53,161.37,372.74,226.54,487.33,160.2,118.36-68.51,156.81-275.84,106.87-528.08q-5.72-28.9-13.23-59,20.94-6.18,41-12.81c253-83.81,417.53-219.3,417.53-357.88C2353.25,989.43,2199.26,860.92,1961,778.89ZM1367.85,407C1530.75,265.2,1683,209.22,1752.37,249.23h0c73.89,42.62,102.62,214.45,56.2,439.81q-4.56,22-9.92,43.86c-91.54-21.12-191-36.84-295-46.61C1443,600,1380.17,521.46,1317.11,453.51Q1341.89,429.62,1367.85,407Zm-569.6,828.44q29.94,57.81,62.56,114.17,33.29,57.48,69.27,113.32c-72.26-8.07-140.41-19-203.35-32.69C746.21,1367.3,770.22,1301.91,798.25,1235.41Zm-.11-221.69C770.69,948.62,747.21,884.6,728,822.79c63-14.09,130.09-25.6,200-34.34Q893,843.23,860.43,899.61T798.14,1013.72Zm50.11,110.85q43.56-90.67,93.85-177.88v0q50.25-87.16,107-170.32c65.62-5,132.91-7.56,200.92-7.56,68.32,0,135.69,2.61,201.29,7.61q56.13,83,106.31,169.75,50.43,87,95.13,177-44.22,91-94.81,178.6h0q-50.14,87.11-105.86,170.8c-65.46,4.67-133.12,7.09-202.06,7.09-68.66,0-135.45-2.14-199.78-6.31Q993.09,1390,942.39,1302.36,892,1215.28,848.25,1124.57Zm791.32,224.36q33.3-57.73,64-116.91h0c29.49,67.23,54.35,132.26,74.09,194.1-64,14.6-133.05,26.36-205.83,35.09Q1606.83,1405.76,1639.57,1348.93Zm63.1-335.14q-30.59-58-63.48-114.82h0q-32.36-55.89-67.09-110.35c70.4,8.89,137.85,20.7,201.19,35.17C1754.28,884.73,1730.58,948.46,1702.67,1013.79ZM1251.05,520.92c43.48,47.1,87,99.69,129.85,156.75q-130.32-6.17-260.79-.06C1163,621.08,1206.9,568.56,1251.05,520.92ZM742.78,252c73.82-42.73,237.05,18.21,409.09,171q16.5,14.65,33.1,30.57c-64.1,68.83-127.44,147.2-188,232.61-103.77,9.61-203.11,25.06-294.44,45.76q-8.43-33.81-15.16-68h0C645.93,452,673.47,292.15,742.78,252ZM635.18,1407.24q-27.43-7.86-54.47-17c-107.59-36.78-196.45-84.57-257.35-136.71C268.64,1206.6,241,1160.07,241,1122.31c0-80.34,119.79-182.83,319.58-252.48q37.6-13.05,75.94-23.9c27.62,89.81,63.84,183.72,107.54,278.67C699.79,1221,663.05,1316.37,635.18,1407.24ZM1146,1836.9c-85.61,74.84-171.4,127.92-247,154.63h0c-67.94,24-122,24.68-154.75,5.82-69.61-40.13-98.53-195.11-59.07-403q7-36.84,16.11-73.26c90.38,20,190.42,34.37,297.35,43,61.05,85.9,125,164.86,189.41,234Q1167.5,1818.07,1146,1836.9Zm107.66-106.54c-44.67-48.21-89.23-101.53-132.76-158.88q63.38,2.49,129.1,2.5,67.47,0,133.2-3C1340.23,1629.42,1296.84,1682.81,1253.66,1730.36Zm572.4,131.15c-13.14,70.83-39.57,118.06-72.24,137-69.54,40.26-218.26-12.07-378.62-150.07q-27.59-23.73-55.49-50.58c62.18-68,124.32-147.07,185-234.86,106.67-9.46,207.45-24.94,298.84-46.06q6.73,27.25,12,53.38h0C1837.53,1681.83,1840.69,1782.67,1826.06,1861.51Zm80-470.79h0c-12.06,4-24.45,7.85-37.06,11.59-27.93-88.41-65.62-182.42-111.74-279.53,44-94.82,80.24-187.62,107.39-275.46q33.86,9.81,65.59,20.7C2134.46,938.3,2259,1042.23,2259,1122.31,2259,1207.61,2124.49,1318.35,1906.09,1390.72Z" transform="translate(-146.75 -142.59)"/><path class="cls-1" d="M1252.05,1323.62c108.82,0,197-88.21,197-197s-88.21-197-197-197-197,88.22-197,197S1143.24,1323.62,1252.05,1323.62Z" transform="translate(-146.75 -142.59)"/></svg>