<svg id="Layer_1" data-name="Layer 1" xmlns="http://www.w3.org/2000/svg" viewBox="0 0 682.99 781.67"><defs><style>.cls-1,.cls-2{fill:#fff;}.cls-1{opacity:0.41;}</style></defs><title>telstra-white</title><path class="cls-1" d="M457.19,345.29,427,522.85c-6.24,32-27.28,40.6-46,40.6h-140l59-325.22c-58.9-26.93-119-44.51-166.89-44.51-45.58,0-82.57,12.33-107.15,41.85Q0,267,0,313.26C0,405.72,72.73,534,197.19,638.66c111,92.52,233,144.31,321.87,144.31,44.33,0,80.07-13.57,103.53-40.67,18.47-21,25.82-48.16,25.82-79,0-89.81-73.21-215.77-191.22-318Z" transform="translate(0 -1.3)"/><path class="cls-2" d="M205.87,1.31c-22.21,0-40.69,14.91-45.59,38.31l-19.7,107.19h176L241,563.44H381c18.67,0,39.7-8.63,45.95-40.6l64-376H617.57c22.29,0,40.73-14.81,45.66-38.21L683,1.3Z" transform="translate(0 -1.3)"/></svg>