<svg id="Layer_1" data-name="Layer 1" xmlns="http://www.w3.org/2000/svg" viewBox="0 0 2078.28 2078.29"><defs><style>.cls-1{fill:#fff;}</style></defs><title>volkswagen-white</title><path class="cls-1" d="M1243.61,1463.27l-200.93,521.07-.84,16.18c66.4,18.72,136.22,28.09,208.59,28.09a787.19,787.19,0,0,0,196.66-24.69l-2.53-19.58Z" transform="translate(-210.86 -210.86)"/><path class="cls-1" d="M471.39,1250.43c0,292.88,163.47,550,405.26,682h0l-361-940.8C486.72,1072.48,471.39,1159.33,471.39,1250.43Z" transform="translate(-210.86 -210.86)"/><path class="cls-1" d="M1449.66,496.92c-63.87-17-131.13-25.53-199.23-25.53a774.46,774.46,0,0,0-195,24.69L1253,1041Z" transform="translate(-210.86 -210.86)"/><path class="cls-1" d="M1642.05,577l-228.16,628.34H1092L863,574.4c-84.29,48.54-158.36,112.4-219.66,188.17l325.24,843.75L1087.8,1298.1h312.47l119.18,308.22,328.65-854A783.52,783.52,0,0,0,1642.05,577Z" transform="translate(-210.86 -210.86)"/><path class="cls-1" d="M1250.43,210.86c-572.15,0-1039.58,466.56-1039.57,1039.57,0,571.29,467.42,1038.72,1039.57,1038.72s1038.71-467.43,1038.71-1038.72C2289.14,677.44,1822.59,210.86,1250.43,210.86Zm0,1945.48c-498.94,0-906.74-407-906.74-905.91,0-499.78,407.8-907.6,906.74-907.6s906.77,407.82,906.77,907.61C2157.2,1749.37,1749.36,2156.34,1250.43,2156.34Z" transform="translate(-210.86 -210.86)"/><path class="cls-1" d="M1979.24,974.57l-370.38,966.36c248.63-130.27,419.74-390.8,419.74-690.49C2028.6,1153.38,2011.58,1060.56,1979.24,974.57Z" transform="translate(-210.86 -210.86)"/></svg>