<?xml version="1.0" encoding="utf-8"?>
<!-- Generator: Adobe Illustrator 16.0.4, SVG Export Plug-In . SVG Version: 6.00 Build 0)  -->
<!DOCTYPE svg PUBLIC "-//W3C//DTD SVG 1.1//EN" "http://www.w3.org/Graphics/SVG/1.1/DTD/svg11.dtd">
<svg version="1.1" id="Layer_1" xmlns="http://www.w3.org/2000/svg" xmlns:xlink="http://www.w3.org/1999/xlink" x="0px" y="0px"
	 width="97px" height="40px" viewBox="0 0 97 40" enable-background="new 0 0 97 40" xml:space="preserve">
<g>
	<path fill="#1C3D7A" d="M1,10.842c0-1.03,0.788-1.848,1.818-1.848c1.029,0,1.848,0.817,1.848,1.848v0.786
		c1.027-1.482,2.513-2.784,4.996-2.784c3.601,0,5.693,2.422,5.693,6.119v8.535c0,1.032-0.787,1.818-1.82,1.818
		c-1.029,0-1.848-0.786-1.848-1.818v-7.417c0-2.484-1.242-3.907-3.419-3.907c-2.12,0-3.602,1.484-3.602,3.966v7.358
		c0,1.032-0.819,1.818-1.848,1.818C1.819,25.316,1,24.53,1,23.498V10.842z"/>
	<path fill="#1C3D7A" d="M17.957,4.727c0-1.03,0.788-1.819,1.815-1.819c1.032,0,1.851,0.789,1.851,1.819v7.114
		c1.178-1.664,2.845-2.999,5.45-2.999c3.754,0,7.416,2.969,7.416,8.297v0.062c0,5.298-3.632,8.3-7.416,8.3
		c-2.667,0-4.332-1.335-5.45-2.818v0.815c0,1-0.819,1.818-1.851,1.818c-0.996,0-1.815-0.818-1.815-1.818V4.727z M30.766,17.201
		v-0.062c0-3.086-2.09-5.117-4.572-5.117c-2.485,0-4.662,2.061-4.662,5.117v0.062c0,3.058,2.177,5.115,4.662,5.115
		C28.708,22.316,30.766,20.353,30.766,17.201"/>
	<path fill="#1C3D7A" d="M36.461,10.842c0-1.03,0.785-1.848,1.816-1.848c1.03,0,1.848,0.817,1.848,1.848v0.786
		c1.029-1.482,2.511-2.784,4.996-2.784c3.602,0,5.691,2.422,5.691,6.119v8.535c0,1.032-0.787,1.818-1.817,1.818
		c-1.031,0-1.848-0.786-1.848-1.818v-7.417c0-2.484-1.24-3.907-3.42-3.907c-2.121,0-3.602,1.484-3.602,3.966v7.358
		c0,1.032-0.817,1.818-1.848,1.818c-0.999,0-1.816-0.786-1.816-1.818V10.842z"/>
	<path fill="#1C3D7A" d="M50.389,5.175h-0.861c-0.163,0-0.29-0.132-0.29-0.288c0-0.155,0.127-0.291,0.29-0.291h2.356
		c0.154,0,0.281,0.136,0.281,0.291c0,0.156-0.127,0.288-0.281,0.288h-0.865v2.685c0,0.174-0.146,0.312-0.316,0.312
		c-0.174,0-0.313-0.138-0.313-0.312V5.175z"/>
	<path fill="#1C3D7A" d="M52.805,4.89c0-0.172,0.138-0.311,0.314-0.311h0.066c0.136,0,0.226,0.068,0.287,0.164l1.074,1.684
		l1.081-1.688c0.065-0.107,0.156-0.159,0.284-0.159h0.064c0.179,0,0.314,0.139,0.314,0.311v2.97c0,0.173-0.136,0.312-0.314,0.312
		c-0.167,0-0.311-0.144-0.311-0.312V5.732L54.8,7.035c-0.066,0.103-0.146,0.162-0.265,0.162c-0.109,0-0.19-0.06-0.256-0.162
		l-0.863-1.291v2.121c0,0.172-0.135,0.306-0.306,0.306c-0.173,0-0.306-0.134-0.306-0.306V4.89z"/>
	<path fill="#025196" d="M86.543,18.146c0.318-0.172,0.537-0.507,0.535-0.9c0.002-0.39-0.217-0.726-0.535-0.903
		c0.283-0.23,0.438-0.603,0.368-0.982c-0.067-0.385-0.337-0.678-0.683-0.8c0.239-0.275,0.328-0.667,0.194-1.03
		c-0.133-0.37-0.452-0.612-0.814-0.67c0.188-0.312,0.211-0.711,0.012-1.049c-0.193-0.339-0.548-0.521-0.914-0.517
		c0.13-0.341,0.08-0.738-0.174-1.036c-0.248-0.3-0.631-0.418-0.99-0.354c0.07-0.353-0.049-0.735-0.348-0.99
		c-0.302-0.248-0.695-0.3-1.039-0.17c0.008-0.364-0.175-0.72-0.516-0.913c-0.334-0.196-0.737-0.178-1.051,0.009
		c-0.058-0.359-0.297-0.677-0.665-0.812c-0.367-0.136-0.757-0.043-1.032,0.192c-0.122-0.342-0.414-0.613-0.798-0.684
		c-0.387-0.067-0.754,0.09-0.984,0.368c-0.179-0.313-0.511-0.53-0.903-0.53s-0.724,0.217-0.904,0.535
		c-0.233-0.283-0.602-0.439-0.985-0.373c-0.387,0.07-0.677,0.342-0.795,0.684c-0.278-0.235-0.668-0.325-1.034-0.192
		c-0.368,0.135-0.61,0.452-0.665,0.813c-0.313-0.187-0.717-0.207-1.053-0.011c-0.34,0.193-0.523,0.55-0.516,0.915
		c-0.34-0.13-0.738-0.08-1.037,0.168c-0.301,0.256-0.416,0.638-0.349,0.994c-0.358-0.067-0.741,0.05-0.991,0.35
		c-0.252,0.299-0.302,0.695-0.172,1.036c-0.362-0.003-0.719,0.178-0.918,0.517c-0.193,0.338-0.172,0.737,0.018,1.049
		c-0.363,0.06-0.685,0.302-0.815,0.67c-0.134,0.363-0.043,0.755,0.193,1.03c-0.345,0.122-0.618,0.415-0.686,0.8
		c-0.067,0.38,0.089,0.752,0.373,0.982c-0.32,0.178-0.537,0.514-0.537,0.903c0,0.392,0.217,0.729,0.537,0.9
		c-0.284,0.233-0.44,0.604-0.373,0.988c0.067,0.385,0.341,0.678,0.686,0.796c-0.239,0.271-0.33,0.668-0.193,1.029
		c0.131,0.369,0.452,0.609,0.812,0.668c-0.186,0.316-0.207,0.713-0.014,1.054c0.197,0.336,0.555,0.52,0.918,0.514
		c-0.13,0.341-0.08,0.742,0.172,1.038c0.25,0.298,0.633,0.416,0.991,0.349c-0.072,0.357,0.048,0.738,0.349,0.99
		c0.299,0.251,0.697,0.302,1.037,0.172c-0.008,0.363,0.176,0.721,0.516,0.916c0.336,0.192,0.739,0.175,1.05-0.009
		c0.058,0.357,0.3,0.677,0.668,0.807c0.366,0.137,0.756,0.048,1.033-0.192c0.119,0.347,0.409,0.618,0.796,0.687
		c0.384,0.068,0.752-0.089,0.985-0.372c0.176,0.318,0.512,0.535,0.904,0.535s0.727-0.217,0.903-0.535
		c0.23,0.283,0.598,0.44,0.982,0.374c0.386-0.07,0.678-0.342,0.8-0.688c0.276,0.24,0.665,0.332,1.03,0.195
		c0.37-0.133,0.611-0.452,0.668-0.81c0.312,0.184,0.716,0.204,1.05,0.012c0.339-0.198,0.523-0.556,0.516-0.917
		c0.344,0.128,0.737,0.08,1.039-0.171c0.299-0.255,0.418-0.636,0.348-0.99c0.359,0.064,0.742-0.054,0.99-0.352
		c0.251-0.296,0.304-0.697,0.174-1.035c0.366,0.003,0.721-0.181,0.914-0.517c0.199-0.341,0.177-0.737-0.012-1.054
		c0.362-0.059,0.682-0.299,0.814-0.665c0.134-0.364,0.042-0.758-0.194-1.032c0.346-0.117,0.615-0.411,0.683-0.794
		C86.98,18.75,86.826,18.381,86.543,18.146 M84.748,18.753c-0.057,0.315,0.04,0.618,0.231,0.843
		c-0.278,0.104-0.515,0.316-0.622,0.613c-0.11,0.302-0.069,0.615,0.082,0.872c-0.294,0.053-0.563,0.225-0.722,0.499
		c-0.159,0.278-0.175,0.595-0.072,0.869c-0.297,0.003-0.591,0.124-0.796,0.369c-0.204,0.243-0.273,0.556-0.221,0.847
		c-0.295-0.048-0.602,0.02-0.851,0.224c-0.241,0.207-0.358,0.5-0.361,0.796c-0.278-0.101-0.598-0.089-0.874,0.071
		c-0.277,0.159-0.449,0.429-0.498,0.721c-0.257-0.15-0.571-0.189-0.872-0.083c-0.3,0.112-0.514,0.347-0.616,0.621
		c-0.229-0.187-0.532-0.287-0.846-0.228c-0.314,0.053-0.566,0.245-0.714,0.502c-0.192-0.222-0.475-0.372-0.791-0.372
		c-0.317,0-0.602,0.147-0.792,0.372c-0.15-0.257-0.402-0.449-0.717-0.502c-0.313-0.06-0.617,0.038-0.842,0.228
		c-0.104-0.277-0.316-0.512-0.617-0.621c-0.302-0.109-0.615-0.067-0.874,0.08c-0.051-0.289-0.22-0.559-0.496-0.718
		c-0.277-0.16-0.594-0.172-0.872-0.071c0-0.296-0.123-0.592-0.365-0.796c-0.246-0.204-0.556-0.274-0.847-0.224
		c0.051-0.291-0.017-0.604-0.227-0.847c-0.204-0.245-0.493-0.366-0.789-0.369c0.097-0.274,0.084-0.591-0.074-0.869
		c-0.161-0.277-0.429-0.446-0.721-0.499c0.148-0.257,0.189-0.57,0.08-0.871c-0.108-0.298-0.344-0.511-0.621-0.614
		c0.191-0.225,0.286-0.527,0.229-0.843c-0.055-0.315-0.248-0.567-0.505-0.715c0.227-0.191,0.374-0.474,0.373-0.793
		c0-0.319-0.146-0.599-0.373-0.793c0.26-0.147,0.451-0.396,0.508-0.715c0.055-0.313-0.04-0.614-0.231-0.843
		c0.277-0.102,0.513-0.314,0.621-0.614c0.109-0.299,0.068-0.613-0.08-0.874c0.292-0.052,0.56-0.223,0.721-0.496
		c0.158-0.275,0.171-0.598,0.074-0.875c0.296,0,0.587-0.12,0.792-0.365c0.207-0.244,0.274-0.555,0.224-0.843
		c0.291,0.049,0.601-0.022,0.847-0.228c0.242-0.202,0.364-0.497,0.365-0.791c0.278,0.096,0.595,0.084,0.872-0.075
		c0.278-0.159,0.445-0.425,0.5-0.719c0.255,0.149,0.568,0.189,0.87,0.081c0.301-0.11,0.515-0.343,0.617-0.622
		c0.225,0.189,0.528,0.286,0.842,0.229c0.314-0.055,0.566-0.247,0.716-0.504c0.191,0.228,0.476,0.374,0.793,0.374
		c0.316,0,0.599-0.146,0.791-0.374c0.147,0.256,0.399,0.448,0.714,0.503c0.313,0.056,0.617-0.039,0.846-0.229
		c0.103,0.276,0.313,0.511,0.616,0.623c0.301,0.108,0.615,0.067,0.872-0.081c0.049,0.293,0.221,0.56,0.498,0.718
		c0.276,0.159,0.593,0.172,0.874,0.075c0.003,0.294,0.12,0.588,0.361,0.792c0.249,0.204,0.556,0.275,0.851,0.225
		c-0.053,0.29,0.017,0.6,0.221,0.846c0.205,0.245,0.499,0.365,0.796,0.365c-0.103,0.277-0.087,0.599,0.072,0.875
		c0.158,0.273,0.428,0.444,0.722,0.496c-0.151,0.261-0.192,0.574-0.082,0.872c0.107,0.302,0.344,0.515,0.622,0.616
		c-0.191,0.229-0.288,0.529-0.231,0.843c0.058,0.318,0.252,0.567,0.506,0.715c-0.227,0.194-0.373,0.474-0.374,0.793
		c0.001,0.319,0.147,0.602,0.375,0.793C85,18.186,84.808,18.438,84.748,18.753"/>
	<path fill="#0D6DAE" d="M69.181,26.869c0,0.582-0.472,1.056-1.058,1.056c-0.58,0-1.055-0.474-1.055-1.056
		c0-0.586,0.475-1.056,1.055-1.056C68.709,25.813,69.181,26.283,69.181,26.869"/>
	<path fill="#0D6DAE" d="M67.637,25.322c0,0.586-0.474,1.056-1.058,1.056c-0.581,0-1.057-0.47-1.057-1.056
		c0-0.581,0.476-1.052,1.057-1.052C67.163,24.271,67.637,24.741,67.637,25.322"/>
	<path fill="#0D6DAE" d="M66.377,23.525c0,0.58-0.471,1.056-1.055,1.056c-0.582,0-1.055-0.476-1.055-1.056
		c0-0.583,0.473-1.056,1.055-1.056C65.906,22.47,66.377,22.942,66.377,23.525"/>
	<path fill="#0D6DAE" d="M65.451,21.542c0,0.583-0.472,1.052-1.054,1.052s-1.057-0.469-1.057-1.052c0-0.586,0.475-1.057,1.057-1.057
		S65.451,20.956,65.451,21.542"/>
	<path fill="#0D6DAE" d="M64.884,19.424c0,0.582-0.471,1.059-1.054,1.059s-1.054-0.477-1.054-1.059c0-0.579,0.471-1.054,1.054-1.054
		S64.884,18.845,64.884,19.424"/>
	<path fill="#0D6DAE" d="M64.694,17.245c0,0.58-0.471,1.056-1.052,1.056c-0.587,0-1.058-0.476-1.058-1.056s0.471-1.057,1.058-1.057
		C64.224,16.188,64.694,16.665,64.694,17.245"/>
	<path fill="#0D6DAE" d="M64.884,15.062c0,0.586-0.471,1.058-1.054,1.058s-1.054-0.472-1.054-1.058c0-0.58,0.471-1.054,1.054-1.054
		S64.884,14.481,64.884,15.062"/>
	<path fill="#0D6DAE" d="M65.451,12.946c0,0.586-0.472,1.057-1.054,1.057s-1.057-0.471-1.057-1.057c0-0.582,0.475-1.055,1.057-1.055
		S65.451,12.364,65.451,12.946"/>
	<path fill="#0D6DAE" d="M66.377,10.963c0,0.584-0.471,1.056-1.055,1.056c-0.582,0-1.055-0.472-1.055-1.056
		c0-0.582,0.473-1.059,1.055-1.059C65.906,9.904,66.377,10.381,66.377,10.963"/>
	<path fill="#0D6DAE" d="M67.637,9.17c0,0.58-0.474,1.055-1.058,1.055c-0.581,0-1.057-0.475-1.057-1.055
		c0-0.584,0.476-1.057,1.057-1.057C67.163,8.113,67.637,8.586,67.637,9.17"/>
	<path fill="#0D6DAE" d="M77.26,4.681c0,0.58-0.472,1.056-1.054,1.056c-0.584,0-1.055-0.476-1.055-1.056
		c0-0.582,0.471-1.058,1.055-1.058C76.788,3.623,77.26,4.099,77.26,4.681"/>
	<path fill="#0D6DAE" d="M79.441,4.87c0,0.581-0.47,1.054-1.056,1.054c-0.581,0-1.055-0.473-1.055-1.054
		c0-0.584,0.474-1.057,1.055-1.057C78.972,3.813,79.441,4.286,79.441,4.87"/>
	<path fill="#0D6DAE" d="M85.34,7.618c0,0.584-0.469,1.057-1.055,1.057c-0.58,0-1.057-0.473-1.057-1.057
		c0-0.583,0.477-1.056,1.057-1.056C84.871,6.562,85.34,7.035,85.34,7.618"/>
	<path fill="#0D6DAE" d="M86.887,9.17c0,0.58-0.47,1.055-1.054,1.055c-0.585,0-1.057-0.475-1.057-1.055
		c0-0.584,0.472-1.057,1.057-1.057C86.417,8.113,86.887,8.586,86.887,9.17"/>
	<path fill="#0D6DAE" d="M88.135,10.963c0,0.584-0.475,1.056-1.057,1.056c-0.583,0-1.056-0.472-1.056-1.056
		c0-0.582,0.473-1.059,1.056-1.059C87.66,9.904,88.135,10.381,88.135,10.963"/>
	<path fill="#0D6DAE" d="M89.069,12.946c0,0.586-0.474,1.057-1.055,1.057c-0.582,0-1.057-0.471-1.057-1.057
		c0-0.582,0.475-1.055,1.057-1.055C88.596,11.892,89.069,12.364,89.069,12.946"/>
	<path fill="#0D6DAE" d="M89.637,15.062c0,0.586-0.471,1.058-1.057,1.058c-0.581,0-1.054-0.472-1.054-1.058
		c0-0.58,0.473-1.054,1.054-1.054C89.166,14.008,89.637,14.481,89.637,15.062"/>
	<path fill="#0D6DAE" d="M89.827,17.245c0,0.58-0.472,1.056-1.057,1.056c-0.582,0-1.053-0.476-1.053-1.056s0.471-1.057,1.053-1.057
		C89.355,16.188,89.827,16.665,89.827,17.245"/>
	<path fill="#0D6DAE" d="M89.637,19.424c0,0.582-0.471,1.059-1.057,1.059c-0.581,0-1.054-0.477-1.054-1.059
		c0-0.579,0.473-1.054,1.054-1.054C89.166,18.37,89.637,18.845,89.637,19.424"/>
	<path fill="#0D6DAE" d="M89.068,21.542c0,0.583-0.47,1.052-1.054,1.052c-0.583,0-1.057-0.469-1.057-1.052
		c0-0.586,0.474-1.057,1.057-1.057C88.599,20.485,89.068,20.956,89.068,21.542"/>
	<path fill="#0D6DAE" d="M88.145,23.525c0,0.58-0.474,1.056-1.058,1.056c-0.577,0-1.056-0.476-1.056-1.056
		c0-0.583,0.479-1.056,1.056-1.056C87.671,22.47,88.145,22.942,88.145,23.525"/>
	<path fill="#0D6DAE" d="M86.887,25.316c0,0.583-0.47,1.059-1.052,1.059c-0.586,0-1.059-0.476-1.059-1.059
		c0-0.582,0.473-1.052,1.059-1.052C86.417,24.265,86.887,24.734,86.887,25.316"/>
	<path fill="#0D6DAE" d="M85.337,26.869c0,0.58-0.469,1.056-1.053,1.056c-0.58,0-1.059-0.476-1.059-1.056
		c0-0.583,0.479-1.056,1.059-1.056C84.868,25.813,85.337,26.286,85.337,26.869"/>
	<path fill="#0D6DAE" d="M83.543,28.125c0,0.583-0.472,1.056-1.057,1.056c-0.58,0-1.054-0.473-1.054-1.056
		c0-0.582,0.474-1.055,1.054-1.055C83.071,27.07,83.543,27.543,83.543,28.125"/>
	<path fill="#0D6DAE" d="M81.557,29.051c0,0.586-0.47,1.055-1.054,1.055c-0.582,0-1.056-0.469-1.056-1.055
		c0-0.582,0.474-1.056,1.056-1.056C81.087,27.995,81.557,28.469,81.557,29.051"/>
	<path fill="#0D6DAE" d="M75.077,4.87c0,0.586-0.469,1.054-1.055,1.054c-0.58,0-1.057-0.468-1.057-1.054
		c0-0.581,0.477-1.055,1.057-1.055C74.608,3.815,75.077,4.289,75.077,4.87"/>
	<path fill="#1780C0" d="M65.354,27.114c0,0.505-0.411,0.911-0.916,0.911c-0.502,0-0.909-0.406-0.909-0.911s0.407-0.91,0.909-0.91
		C64.943,26.204,65.354,26.609,65.354,27.114"/>
	<path fill="#1780C0" d="M84.798,30.541c0,0.506-0.41,0.916-0.912,0.916c-0.505,0-0.911-0.41-0.911-0.916
		c0-0.5,0.406-0.908,0.911-0.908C84.388,29.633,84.798,30.041,84.798,30.541"/>
	<path fill="#1780C0" d="M86.991,29.009c0,0.503-0.411,0.91-0.914,0.91c-0.502,0-0.909-0.407-0.909-0.91
		c0-0.505,0.407-0.913,0.909-0.913C86.58,28.096,86.991,28.504,86.991,29.009"/>
	<path fill="#1780C0" d="M88.885,27.114c0,0.505-0.413,0.913-0.915,0.913c-0.503,0-0.908-0.408-0.908-0.913
		c0-0.502,0.405-0.907,0.908-0.907C88.472,26.207,88.885,26.612,88.885,27.114"/>
	<path fill="#1780C0" d="M90.419,24.924c0,0.503-0.41,0.911-0.912,0.911c-0.505,0-0.911-0.408-0.911-0.911
		c0-0.506,0.406-0.913,0.911-0.913C90.009,24.011,90.419,24.418,90.419,24.924"/>
	<path fill="#1780C0" d="M91.55,22.494c0,0.505-0.408,0.913-0.908,0.913c-0.507,0-0.915-0.408-0.915-0.913
		c0-0.503,0.408-0.911,0.915-0.911C91.142,21.583,91.55,21.991,91.55,22.494"/>
	<path fill="#1780C0" d="M92.241,19.91c0,0.506-0.407,0.911-0.91,0.911c-0.504,0-0.911-0.405-0.911-0.911
		c0-0.502,0.407-0.912,0.911-0.912C91.834,18.998,92.241,19.408,92.241,19.91"/>
	<path fill="#1780C0" d="M92.475,17.245c0,0.504-0.409,0.911-0.907,0.911c-0.508,0-0.914-0.407-0.914-0.911s0.406-0.91,0.914-0.91
		C92.065,16.335,92.475,16.741,92.475,17.245"/>
	<path fill="#1780C0" d="M92.241,14.578c0,0.503-0.407,0.909-0.91,0.909c-0.504,0-0.911-0.406-0.911-0.909
		c0-0.505,0.407-0.91,0.911-0.91C91.834,13.668,92.241,14.073,92.241,14.578"/>
	<path fill="#1780C0" d="M91.551,11.992c0,0.502-0.411,0.91-0.912,0.91c-0.504,0-0.91-0.408-0.91-0.91
		c0-0.503,0.406-0.913,0.91-0.913C91.14,11.079,91.551,11.489,91.551,11.992"/>
	<path fill="#1780C0" d="M90.419,9.565c0,0.505-0.41,0.91-0.911,0.91c-0.506,0-0.912-0.405-0.912-0.91s0.406-0.911,0.912-0.911
		C90.009,8.654,90.419,9.061,90.419,9.565"/>
	<path fill="#1780C0" d="M88.885,7.373c0,0.504-0.413,0.91-0.912,0.91c-0.506,0-0.911-0.406-0.911-0.91
		c0-0.506,0.405-0.909,0.911-0.909C88.472,6.464,88.885,6.867,88.885,7.373"/>
	<path fill="#1780C0" d="M86.991,5.478c0,0.506-0.411,0.912-0.914,0.912c-0.502,0-0.909-0.406-0.909-0.912
		c0-0.502,0.407-0.909,0.909-0.909C86.58,4.568,86.991,4.976,86.991,5.478"/>
	<path fill="#1780C0" d="M84.798,3.942c0,0.505-0.41,0.913-0.912,0.913c-0.505,0-0.911-0.408-0.911-0.913s0.406-0.908,0.911-0.908
		C84.388,3.034,84.798,3.438,84.798,3.942"/>
	<path fill="#1780C0" d="M63.815,24.924c0,0.503-0.409,0.907-0.907,0.907c-0.508,0-0.916-0.404-0.916-0.907
		c0-0.509,0.408-0.913,0.916-0.913C63.406,24.011,63.815,24.415,63.815,24.924"/>
	<path fill="#1780C0" d="M62.685,22.494c0,0.503-0.409,0.913-0.912,0.913c-0.504,0-0.909-0.41-0.909-0.913s0.405-0.911,0.909-0.911
		C62.275,21.583,62.685,21.991,62.685,22.494"/>
	<path fill="#1780C0" d="M61.989,19.909c0,0.507-0.406,0.912-0.91,0.912s-0.907-0.405-0.907-0.912c0-0.503,0.403-0.911,0.907-0.911
		S61.989,19.406,61.989,19.909"/>
	<path fill="#1780C0" d="M61.758,17.245c0,0.504-0.407,0.911-0.91,0.911c-0.505,0-0.912-0.407-0.912-0.911s0.407-0.91,0.912-0.91
		C61.351,16.335,61.758,16.741,61.758,17.245"/>
	<path fill="#1780C0" d="M61.989,14.578c0,0.503-0.406,0.909-0.91,0.909s-0.907-0.406-0.907-0.909s0.403-0.91,0.907-0.91
		S61.989,14.075,61.989,14.578"/>
	<path fill="#1780C0" d="M62.685,11.992c0,0.501-0.409,0.912-0.912,0.912c-0.504,0-0.909-0.411-0.909-0.912
		c0-0.504,0.405-0.912,0.909-0.912C62.275,11.08,62.685,11.488,62.685,11.992"/>
	<path fill="#1B9DD9" d="M89.46,36.879c0,0.295-0.234,0.532-0.528,0.532c-0.296,0-0.53-0.237-0.53-0.532
		c0-0.29,0.234-0.529,0.53-0.529C89.226,36.35,89.46,36.589,89.46,36.879"/>
	<path fill="#1B9DD9" d="M87.342,36.879c0,0.295-0.238,0.532-0.528,0.532c-0.294,0-0.532-0.237-0.532-0.532
		c0-0.29,0.238-0.529,0.532-0.529C87.104,36.35,87.342,36.589,87.342,36.879"/>
	<path fill="#1B9DD9" d="M88.662,38.629c0,0.293-0.239,0.532-0.532,0.532c-0.292,0-0.528-0.239-0.528-0.532
		c0-0.292,0.236-0.531,0.528-0.531C88.423,38.098,88.662,38.337,88.662,38.629"/>
	<path fill="#1B9DD9" d="M89.922,33.009c0,0.29-0.238,0.529-0.531,0.529c-0.295,0-0.531-0.239-0.531-0.529
		c0-0.292,0.236-0.529,0.531-0.529C89.684,32.479,89.922,32.717,89.922,33.009"/>
	<path fill="#1B9DD9" d="M92.502,30.429c0,0.292-0.239,0.531-0.528,0.531c-0.294,0-0.532-0.239-0.532-0.531
		c0-0.296,0.238-0.532,0.532-0.532C92.263,29.896,92.502,30.133,92.502,30.429"/>
	<path fill="#1B9DD9" d="M94.596,27.434c0,0.295-0.238,0.535-0.529,0.535c-0.294,0-0.53-0.24-0.53-0.535
		c0-0.293,0.236-0.526,0.53-0.526C94.357,26.907,94.596,27.141,94.596,27.434"/>
	<path fill="#1B9DD9" d="M96,24.268c0,0.292-0.236,0.531-0.529,0.531c-0.296,0-0.534-0.239-0.534-0.531
		c0-0.296,0.238-0.529,0.534-0.529C95.764,23.738,96,23.972,96,24.268"/>
	<path fill="#1B9DD9" d="M63.019,28.909c0,0.396-0.322,0.718-0.721,0.718c-0.393,0-0.715-0.321-0.715-0.718s0.322-0.719,0.715-0.719
		C62.696,28.19,63.019,28.513,63.019,28.909"/>
	<path fill="#1B9DD9" d="M61.203,26.318c0,0.394-0.322,0.716-0.717,0.716c-0.396,0-0.715-0.322-0.715-0.716
		c0-0.396,0.319-0.718,0.715-0.718C60.881,25.601,61.203,25.923,61.203,26.318"/>
	<path fill="#1B9DD9" d="M59.866,23.448c0,0.399-0.319,0.718-0.718,0.718c-0.396,0-0.717-0.318-0.717-0.718
		c0-0.394,0.32-0.715,0.717-0.715C59.547,22.733,59.866,23.055,59.866,23.448"/>
	<path fill="#1B9DD9" d="M59.049,20.396c0,0.396-0.321,0.717-0.72,0.717c-0.396,0-0.718-0.32-0.718-0.717
		c0-0.399,0.322-0.72,0.718-0.72C58.728,19.677,59.049,19.997,59.049,20.396"/>
	<path fill="#1B9DD9" d="M58.771,17.245c0,0.396-0.322,0.719-0.717,0.719c-0.396,0-0.718-0.322-0.718-0.719
		c0-0.396,0.321-0.719,0.718-0.719C58.449,16.526,58.771,16.85,58.771,17.245"/>
	<path fill="#1B9DD9" d="M59.049,14.094c0,0.396-0.321,0.717-0.72,0.717c-0.396,0-0.718-0.32-0.718-0.717
		c0-0.397,0.322-0.72,0.718-0.72C58.728,13.374,59.049,13.696,59.049,14.094"/>
	<path fill="#1B9DD9" d="M88.59,3.367c0,0.394-0.321,0.72-0.718,0.72c-0.397,0-0.719-0.326-0.719-0.72
		c0-0.396,0.321-0.719,0.719-0.719C88.269,2.648,88.59,2.971,88.59,3.367"/>
	<path fill="#1B9DD9" d="M95.062,17.244c0,0.397-0.322,0.72-0.717,0.72c-0.397,0-0.72-0.322-0.72-0.72
		c0-0.396,0.322-0.718,0.72-0.718C94.739,16.526,95.062,16.848,95.062,17.244"/>
	<path fill="#1B9DD9" d="M94.799,20.396c0,0.395-0.323,0.717-0.716,0.717c-0.396,0-0.719-0.322-0.719-0.717
		c0-0.397,0.323-0.718,0.719-0.718C94.476,19.679,94.799,19.999,94.799,20.396"/>
	<path fill="#1B9DD9" d="M93.982,23.448c0,0.399-0.325,0.718-0.72,0.718c-0.397,0-0.719-0.318-0.719-0.718
		c0-0.394,0.321-0.715,0.719-0.715C93.657,22.733,93.982,23.055,93.982,23.448"/>
	<path fill="#1B9DD9" d="M92.644,26.318c0,0.394-0.323,0.716-0.716,0.716c-0.399,0-0.72-0.322-0.72-0.716
		c0-0.396,0.32-0.718,0.72-0.718C92.32,25.601,92.644,25.923,92.644,26.318"/>
	<path fill="#1B9DD9" d="M90.828,28.909c0,0.396-0.322,0.718-0.719,0.718c-0.396,0-0.719-0.321-0.719-0.718
		c0-0.394,0.323-0.716,0.719-0.716C90.506,28.193,90.828,28.516,90.828,28.909"/>
	<path fill="#1B9DD9" d="M88.59,31.146c0,0.396-0.32,0.719-0.715,0.719c-0.398,0-0.719-0.322-0.719-0.719
		c0-0.394,0.32-0.718,0.719-0.718C88.27,30.429,88.59,30.753,88.59,31.146"/>
	<path fill="#1B9DD9" d="M85.997,32.961c0,0.396-0.322,0.72-0.715,0.72c-0.395,0-0.718-0.323-0.718-0.72
		c0-0.396,0.323-0.718,0.718-0.718C85.675,32.243,85.997,32.565,85.997,32.961"/>
	<path fill="#1B9DD9" d="M86.019,1.558c0,0.396-0.323,0.717-0.719,0.717c-0.399,0-0.72-0.32-0.72-0.717
		c0-0.395,0.32-0.719,0.72-0.719C85.695,0.839,86.019,1.163,86.019,1.558"/>
	<path fill="#1C3D7A" d="M80.506,17.192c0,2.329-1.884,4.216-4.214,4.216c-2.326,0-4.213-1.887-4.213-4.216
		c0-2.328,1.887-4.215,4.213-4.215C78.622,12.978,80.506,14.864,80.506,17.192"/>
	<path fill="#1C3D7A" d="M69.66,13.27c0,0.634,0.517,1.152,1.156,1.152s1.153-0.519,1.153-1.152c0-0.638-0.514-1.156-1.153-1.156
		S69.66,12.632,69.66,13.27"/>
	<path fill="#1C3D7A" d="M83.949,17.245c0-0.576-0.431-1.037-0.984-1.12c0.349-0.201,0.588-0.559,0.588-0.984
		c0-0.613-0.479-1.104-1.085-1.142c0.168-0.199,0.283-0.447,0.283-0.729c0-0.638-0.517-1.156-1.154-1.156
		c-0.143,0-0.276,0.034-0.404,0.081c0.021-0.087,0.053-0.171,0.053-0.263c0-0.639-0.516-1.156-1.155-1.156
		c-0.299,0-0.571,0.123-0.775,0.311c0.006-0.043,0.027-0.083,0.027-0.124c0-0.642-0.518-1.157-1.155-1.157
		c-0.369,0-0.684,0.185-0.895,0.453c-0.153-0.464-0.573-0.804-1.086-0.804c-0.516,0-0.938,0.34-1.085,0.804
		c-0.209-0.269-0.521-0.453-0.895-0.453c-0.64,0-1.155,0.516-1.155,1.157c0,0.041,0.02,0.081,0.024,0.124
		c-0.207-0.188-0.474-0.311-0.777-0.311c-0.637,0-1.154,0.518-1.154,1.156s0.518,1.152,1.154,1.152c0.638,0,1.156-0.514,1.156-1.152
		c0-0.048-0.021-0.083-0.025-0.128c0.205,0.188,0.475,0.312,0.777,0.312c0.514,0,0.937-0.343,1.084-0.811
		c0.212,0.272,0.524,0.456,0.896,0.456c0.37,0,0.682-0.184,0.895-0.454c0.149,0.466,0.57,0.809,1.086,0.809
		c0.301,0,0.567-0.124,0.773-0.312c-0.003,0.045-0.024,0.08-0.024,0.128c0,0.639,0.517,1.152,1.154,1.152
		c0.147,0,0.278-0.035,0.403-0.079c-0.022,0.087-0.051,0.17-0.051,0.265c0,0.61,0.477,1.1,1.084,1.14
		c-0.172,0.199-0.284,0.449-0.284,0.731c0,0.579,0.43,1.033,0.982,1.12c-0.342,0.196-0.585,0.556-0.585,0.984
		c0,0.428,0.243,0.784,0.585,0.983c-0.553,0.086-0.982,0.542-0.982,1.118c0,0.284,0.112,0.531,0.284,0.735
		c-0.607,0.04-1.084,0.524-1.084,1.137c0,0.095,0.028,0.179,0.051,0.264c-0.125-0.044-0.256-0.08-0.403-0.08
		c-0.638,0-1.154,0.515-1.154,1.153c0,0.048,0.021,0.086,0.024,0.13c-0.206-0.189-0.473-0.311-0.773-0.311
		c-0.516,0-0.937,0.341-1.086,0.805c-0.213-0.27-0.524-0.456-0.895-0.456c-0.371,0-0.684,0.187-0.896,0.456
		c-0.147-0.464-0.57-0.805-1.084-0.805c-0.303,0-0.572,0.121-0.777,0.311c0.005-0.044,0.025-0.082,0.025-0.13
		c0-0.639-0.519-1.153-1.156-1.153c-0.14,0-0.274,0.036-0.4,0.08c0.018-0.085,0.052-0.169,0.052-0.264
		c0-0.612-0.481-1.097-1.084-1.137c0.169-0.204,0.281-0.451,0.281-0.735c0-0.576-0.43-1.032-0.983-1.118
		c0.342-0.199,0.588-0.556,0.588-0.983c0-0.429-0.246-0.788-0.588-0.984c0.554-0.087,0.983-0.541,0.983-1.12
		c0-0.639-0.516-1.153-1.153-1.153c-0.643,0-1.156,0.515-1.156,1.153c0,0.426,0.24,0.783,0.585,0.984
		c-0.552,0.083-0.983,0.544-0.983,1.12c0,0.575,0.432,1.034,0.983,1.119c-0.345,0.201-0.585,0.559-0.585,0.982
		c0,0.614,0.481,1.104,1.084,1.145c-0.167,0.2-0.281,0.447-0.281,0.728c0,0.64,0.516,1.156,1.156,1.156
		c0.142,0,0.276-0.032,0.403-0.083c-0.022,0.09-0.056,0.172-0.056,0.264c0,0.642,0.518,1.159,1.154,1.159
		c0.304,0,0.57-0.124,0.777-0.311c-0.005,0.041-0.024,0.079-0.024,0.124c0,0.638,0.516,1.156,1.155,1.156
		c0.373,0,0.686-0.187,0.895-0.456c0.147,0.465,0.569,0.808,1.085,0.808c0.512,0,0.933-0.343,1.086-0.808
		c0.211,0.27,0.525,0.456,0.895,0.456c0.638,0,1.155-0.519,1.155-1.156c0-0.045-0.021-0.083-0.027-0.124
		c0.204,0.187,0.477,0.311,0.775,0.311c0.64,0,1.155-0.518,1.155-1.159c0-0.092-0.032-0.174-0.053-0.264
		c0.128,0.051,0.262,0.083,0.404,0.083c0.638,0,1.154-0.517,1.154-1.156c0-0.28-0.115-0.527-0.283-0.728
		c0.606-0.041,1.085-0.53,1.085-1.145c0-0.424-0.239-0.781-0.588-0.982C83.519,18.279,83.949,17.82,83.949,17.245"/>
</g>
</svg>
